<?xml version="1.0" encoding="utf-8"?>
<!-- Generator: Adobe Illustrator 19.1.0, SVG Export Plug-In . SVG Version: 6.00 Build 0)  -->
<!DOCTYPE svg PUBLIC "-//W3C//DTD SVG 1.1//EN" "http://www.w3.org/Graphics/SVG/1.1/DTD/svg11.dtd">
<svg version="1.1" id="Layer_1" xmlns="http://www.w3.org/2000/svg" xmlns:xlink="http://www.w3.org/1999/xlink" x="0px" y="0px"
	 viewBox="0 0 113 111" style="enable-background:new 0 0 113 111;" xml:space="preserve">
<style type="text/css">
	.st0{fill:#535E67;}
	.st1{fill:#E3E5EA;}
	.st2{fill:none;stroke:#535E67;stroke-width:2;stroke-linejoin:round;}
	.st3{fill:none;stroke:#535E67;stroke-width:2;stroke-linejoin:round;stroke-dasharray:1.9552,0.9776;}
	.st4{fill:none;stroke:#535E67;stroke-width:2;stroke-linecap:round;stroke-linejoin:round;stroke-miterlimit:10;}
	.st5{fill:#E86F6D;}
	.st6{fill:none;stroke:#E05552;stroke-width:2;stroke-linejoin:round;}
	.st7{fill:none;stroke:#E05552;stroke-width:2;stroke-linejoin:round;stroke-dasharray:1.9518,0.9759;}
	.st8{fill:none;stroke:#535E67;stroke-width:2;stroke-linejoin:round;stroke-dasharray:2.1159,1.058;}
	.st9{fill:none;stroke:#E05552;stroke-width:2;stroke-linejoin:round;stroke-dasharray:1.876,0.938;}
	.st10{fill:none;stroke:#E05552;stroke-width:2;stroke-linejoin:round;stroke-dasharray:1.5266,0.7633;}
	.st11{fill:none;stroke:#535E67;stroke-width:5;stroke-linecap:round;stroke-linejoin:round;stroke-miterlimit:10;}
	.st12{fill:none;}
</style>
<g>
	<path class="st12" d="M54.5,50.7c-0.7-0.6-1.4-1.1-2.1-1.5c-0.8-0.4-1.6-0.6-2.4-0.6c-0.9,0-1.7,0.2-2.5,0.5
		c-0.8,0.3-1.4,0.8-2,1.3s-1,1.3-1.4,2.2c-0.3,0.9-0.5,1.8-0.5,2.9c0,1.1,0.2,2.1,0.5,3c0.3,0.9,0.8,1.6,1.4,2.2
		c0.6,0.6,1.2,1,2,1.3c0.8,0.3,1.6,0.5,2.5,0.5c0.9,0,1.7-0.2,2.4-0.6s1.5-0.9,2.1-1.5c0.7-0.6,1.3-1.4,1.9-2.2s1.2-1.7,1.8-2.6
		c-0.6-0.9-1.2-1.8-1.8-2.6S55.2,51.3,54.5,50.7z"/>
	<path class="st0" d="M66.7,61.8c-0.8-0.4-1.5-0.9-2.1-1.5c-0.7-0.6-1.3-1.4-1.9-2.2s-1.2-1.7-1.8-2.6c0.6-0.9,1.2-1.8,1.8-2.6
		s1.2-1.6,1.9-2.2c0.7-0.6,1.4-1.1,2.1-1.5c0.3-0.1,0.6-0.3,0.9-0.3v-2.4c-0.5,0.1-0.9,0.2-1.4,0.4c-0.9,0.4-1.8,0.9-2.5,1.6
		c-0.8,0.7-1.5,1.4-2.2,2.3c-0.7,0.9-1.3,1.8-1.9,2.7c-0.6-0.9-1.3-1.8-1.9-2.7c-0.7-0.9-1.4-1.6-2.2-2.3c-0.8-0.7-1.6-1.2-2.5-1.6
		c-0.9-0.4-1.9-0.6-3-0.6c-1.1,0-2.2,0.2-3.3,0.6c-1,0.4-2,1-2.7,1.8c-0.8,0.8-1.4,1.8-1.9,2.9c-0.5,1.1-0.7,2.4-0.7,3.8
		c0,1.4,0.2,2.7,0.7,3.9c0.5,1.2,1.1,2.1,1.9,2.9c0.8,0.8,1.7,1.4,2.7,1.8c1,0.4,2.1,0.6,3.3,0.6c1.1,0,2.1-0.2,3-0.6
		c0.9-0.4,1.8-0.9,2.5-1.6c0.8-0.7,1.5-1.4,2.2-2.3c0.7-0.9,1.3-1.8,1.9-2.7c0.6,0.9,1.3,1.8,1.9,2.7c0.7,0.9,1.4,1.6,2.2,2.3
		c0.8,0.7,1.6,1.2,2.5,1.6c0.4,0.2,0.9,0.3,1.4,0.4v-2.4C67.3,62.1,67,62,66.7,61.8z M56.4,58.1c-0.6,0.8-1.2,1.6-1.9,2.2
		c-0.7,0.6-1.4,1.2-2.1,1.5s-1.6,0.6-2.4,0.6c-0.9,0-1.7-0.2-2.5-0.5c-0.8-0.3-1.4-0.8-2-1.3c-0.6-0.6-1-1.3-1.4-2.2
		c-0.3-0.9-0.5-1.9-0.5-3c0-1.1,0.2-2.1,0.5-2.9c0.3-0.9,0.8-1.6,1.4-2.2s1.2-1,2-1.3c0.8-0.3,1.6-0.5,2.5-0.5
		c0.9,0,1.7,0.2,2.4,0.6c0.8,0.4,1.5,0.9,2.1,1.5c0.7,0.6,1.3,1.4,1.9,2.2s1.2,1.7,1.8,2.6C57.6,56.4,57,57.3,56.4,58.1z"/>
</g>
</svg>
