<?xml version="1.0" encoding="utf-8"?>
<!-- Generator: Adobe Illustrator 19.1.0, SVG Export Plug-In . SVG Version: 6.00 Build 0)  -->
<!DOCTYPE svg PUBLIC "-//W3C//DTD SVG 1.1//EN" "http://www.w3.org/Graphics/SVG/1.1/DTD/svg11.dtd">
<svg version="1.1" id="Layer_1" xmlns="http://www.w3.org/2000/svg" xmlns:xlink="http://www.w3.org/1999/xlink" x="0px" y="0px"
	 viewBox="0 0 113 111" style="enable-background:new 0 0 113 111;" xml:space="preserve">
<style type="text/css">
	.st0{fill:#535E67;}
	.st1{fill:#E3E5EA;}
	.st2{fill:none;stroke:#535E67;stroke-width:2;stroke-linejoin:round;}
	.st3{fill:none;stroke:#535E67;stroke-width:2;stroke-linejoin:round;stroke-dasharray:1.9552,0.9776;}
	.st4{fill:none;stroke:#535E67;stroke-width:2;stroke-linecap:round;stroke-linejoin:round;stroke-miterlimit:10;}
	.st5{fill:#E86F6D;}
	.st6{fill:none;stroke:#E05552;stroke-width:2;stroke-linejoin:round;}
	.st7{fill:none;stroke:#E05552;stroke-width:2;stroke-linejoin:round;stroke-dasharray:1.9518,0.9759;}
	.st8{fill:none;stroke:#535E67;stroke-width:2;stroke-linejoin:round;stroke-dasharray:2.1159,1.058;}
	.st9{fill:none;stroke:#E05552;stroke-width:2;stroke-linejoin:round;stroke-dasharray:1.876,0.938;}
	.st10{fill:none;stroke:#E05552;stroke-width:2;stroke-linejoin:round;stroke-dasharray:1.5266,0.7633;}
	.st11{fill:none;stroke:#535E67;stroke-width:5;stroke-linecap:round;stroke-linejoin:round;stroke-miterlimit:10;}
	.st12{fill:none;}
</style>
<g>
	<g>
		<g>
			<path class="st0" d="M37.1,34.1c-0.7,0-1.4,0.1-2,0.4c-0.6,0.3-1.1,0.6-1.6,1.1c-0.4,0.5-0.8,1.1-1,1.8c-0.3,0.7-0.4,1.5-0.4,2.3
				c0,1,0.1,1.9,0.2,2.9c0.2,0.9,0.3,1.9,0.5,2.8c0.2,0.9,0.4,1.8,0.5,2.7c0.2,0.9,0.2,1.8,0.2,2.7c0,0.6-0.1,1.2-0.3,1.8
				c-0.2,0.5-0.5,1-0.9,1.4c-0.4,0.4-0.8,0.7-1.2,1c-0.5,0.3-0.9,0.5-1.4,0.6c0.5,0.1,1,0.3,1.4,0.6c0.5,0.3,0.9,0.6,1.2,1
				c0.4,0.4,0.6,0.9,0.9,1.4c0.2,0.5,0.3,1.1,0.3,1.8c0,0.9-0.1,1.8-0.2,2.7c-0.2,0.9-0.3,1.8-0.5,2.7c-0.2,0.9-0.4,1.8-0.5,2.8
				c-0.2,0.9-0.2,1.9-0.2,2.9c0,0.8,0.1,1.6,0.4,2.3c0.3,0.7,0.6,1.3,1,1.8c0.4,0.5,1,0.9,1.6,1.1s1.3,0.4,2,0.4h0.9
				c0.2,0,0.3,0.1,0.4,0.2s0.2,0.3,0.2,0.4v1.1h-1.4c-1.1,0-2.2-0.2-3.1-0.6c-0.9-0.4-1.7-0.9-2.3-1.6c-0.6-0.7-1.1-1.4-1.4-2.3
				c-0.3-0.9-0.5-1.9-0.5-2.9c0-1,0.1-1.9,0.2-2.8c0.2-0.9,0.3-1.8,0.5-2.7c0.2-0.9,0.4-1.8,0.5-2.7c0.2-0.9,0.2-1.8,0.2-2.8
				c0-0.6-0.1-1.1-0.3-1.6c-0.2-0.5-0.5-0.9-0.8-1.2c-0.4-0.4-0.8-0.6-1.3-0.8c-0.5-0.2-1-0.3-1.6-0.3v-1.6c0.6,0,1.2-0.1,1.6-0.3
				c0.5-0.2,0.9-0.5,1.3-0.8c0.4-0.4,0.6-0.8,0.8-1.2c0.2-0.5,0.3-1,0.3-1.6c0-1-0.1-1.9-0.2-2.8c-0.2-0.9-0.3-1.8-0.5-2.7
				c-0.2-0.9-0.4-1.8-0.5-2.7c-0.2-0.9-0.2-1.8-0.2-2.8c0-1.1,0.2-2,0.5-2.9c0.3-0.9,0.8-1.7,1.4-2.3c0.6-0.7,1.4-1.2,2.3-1.6
				c0.9-0.4,1.9-0.6,3.1-0.6h1.4v1.1c0,0.2-0.1,0.3-0.2,0.4c-0.1,0.1-0.3,0.2-0.4,0.2H37.1z"/>
		</g>
	</g>
	<g>
		<g>
			<path class="st0" d="M75.9,76.9c0.7,0,1.4-0.1,2-0.4c0.6-0.3,1.1-0.6,1.6-1.1c0.4-0.5,0.8-1.1,1-1.8c0.3-0.7,0.4-1.5,0.4-2.3
				c0-1-0.1-1.9-0.2-2.9c-0.2-0.9-0.3-1.9-0.5-2.8c-0.2-0.9-0.4-1.8-0.5-2.7c-0.2-0.9-0.2-1.8-0.2-2.7c0-0.6,0.1-1.2,0.3-1.8
				c0.2-0.5,0.5-1,0.9-1.4c0.4-0.4,0.8-0.7,1.2-1c0.5-0.3,0.9-0.5,1.4-0.6c-0.5-0.1-1-0.3-1.4-0.6c-0.5-0.3-0.9-0.6-1.2-1
				c-0.4-0.4-0.6-0.9-0.9-1.4c-0.2-0.5-0.3-1.1-0.3-1.8c0-0.9,0.1-1.8,0.2-2.7c0.2-0.9,0.3-1.8,0.5-2.7c0.2-0.9,0.4-1.8,0.5-2.8
				c0.2-0.9,0.2-1.9,0.2-2.9c0-0.8-0.1-1.6-0.4-2.3c-0.3-0.7-0.6-1.3-1-1.8c-0.4-0.5-1-0.9-1.6-1.1c-0.6-0.3-1.3-0.4-2-0.4H75
				c-0.2,0-0.3-0.1-0.4-0.2c-0.1-0.1-0.2-0.3-0.2-0.4v-1.1h1.4c1.1,0,2.2,0.2,3.1,0.6c0.9,0.4,1.7,0.9,2.3,1.6
				c0.6,0.7,1.1,1.4,1.4,2.3c0.3,0.9,0.5,1.9,0.5,2.9c0,1-0.1,1.9-0.2,2.8c-0.2,0.9-0.3,1.8-0.5,2.7c-0.2,0.9-0.4,1.8-0.5,2.7
				c-0.2,0.9-0.2,1.8-0.2,2.8c0,0.6,0.1,1.1,0.3,1.6c0.2,0.5,0.5,0.9,0.8,1.2c0.4,0.4,0.8,0.6,1.3,0.8c0.5,0.2,1,0.3,1.6,0.3v1.6
				c-0.6,0-1.2,0.1-1.6,0.3c-0.5,0.2-0.9,0.5-1.3,0.8c-0.4,0.4-0.6,0.8-0.8,1.2c-0.2,0.5-0.3,1-0.3,1.6c0,1,0.1,1.9,0.2,2.8
				c0.2,0.9,0.3,1.8,0.5,2.7c0.2,0.9,0.4,1.8,0.5,2.7c0.2,0.9,0.2,1.8,0.2,2.8c0,1.1-0.2,2-0.5,2.9c-0.3,0.9-0.8,1.7-1.4,2.3
				c-0.6,0.7-1.4,1.2-2.3,1.6c-0.9,0.4-1.9,0.6-3.1,0.6h-1.4v-1.1c0-0.2,0.1-0.3,0.2-0.4c0.1-0.1,0.3-0.2,0.4-0.2H75.9z"/>
		</g>
	</g>
	<g>
		<rect x="41.8" y="40.7" class="st1" width="29.4" height="29.4"/>
		<g>
			<polyline class="st2" points="71.2,69 71.2,70 70.2,70 			"/>
			<line class="st3" x1="69.2" y1="70" x2="43.3" y2="70"/>
			<polyline class="st2" points="42.8,70 41.8,70 41.8,69 			"/>
			<line class="st3" x1="41.8" y1="68.1" x2="41.8" y2="42.2"/>
			<polyline class="st2" points="41.8,41.7 41.8,40.7 42.8,40.7 			"/>
			<line class="st3" x1="43.8" y1="40.7" x2="69.7" y2="40.7"/>
			<polyline class="st2" points="70.2,40.7 71.2,40.7 71.2,41.7 			"/>
			<line class="st3" x1="71.2" y1="42.6" x2="71.2" y2="68.6"/>
		</g>
	</g>
</g>
</svg>
