<?xml version="1.0" encoding="utf-8"?>
<!-- Generator: Adobe Illustrator 19.1.0, SVG Export Plug-In . SVG Version: 6.00 Build 0)  -->
<!DOCTYPE svg PUBLIC "-//W3C//DTD SVG 1.1//EN" "http://www.w3.org/Graphics/SVG/1.1/DTD/svg11.dtd">
<svg version="1.1" id="Layer_1" xmlns="http://www.w3.org/2000/svg" xmlns:xlink="http://www.w3.org/1999/xlink" x="0px" y="0px"
	 viewBox="0 0 113 111" style="enable-background:new 0 0 113 111;" xml:space="preserve">
<style type="text/css">
	.st0{fill:#535E67;}
	.st1{fill:#E3E5EA;}
	.st2{fill:none;stroke:#535E67;stroke-width:2;stroke-linejoin:round;}
	.st3{fill:none;stroke:#535E67;stroke-width:2;stroke-linejoin:round;stroke-dasharray:1.9552,0.9776;}
	.st4{fill:none;stroke:#535E67;stroke-width:2;stroke-linecap:round;stroke-linejoin:round;stroke-miterlimit:10;}
	.st5{fill:#E86F6D;}
	.st6{fill:none;stroke:#E05552;stroke-width:2;stroke-linejoin:round;}
	.st7{fill:none;stroke:#E05552;stroke-width:2;stroke-linejoin:round;stroke-dasharray:1.9518,0.9759;}
	.st8{fill:none;stroke:#535E67;stroke-width:2;stroke-linejoin:round;stroke-dasharray:2.1159,1.058;}
	.st9{fill:none;stroke:#E05552;stroke-width:2;stroke-linejoin:round;stroke-dasharray:1.876,0.938;}
	.st10{fill:none;stroke:#E05552;stroke-width:2;stroke-linejoin:round;stroke-dasharray:1.5266,0.7633;}
	.st11{fill:none;stroke:#535E67;stroke-width:5;stroke-linecap:round;stroke-linejoin:round;stroke-miterlimit:10;}
	.st12{fill:none;}
</style>
<g>
	<g>
		<rect x="41.8" y="18.7" class="st1" width="29.4" height="29.4"/>
		<g>
			<polyline class="st2" points="71.2,47.1 71.2,48.1 70.2,48.1 			"/>
			<line class="st3" x1="69.2" y1="48.1" x2="43.3" y2="48.1"/>
			<polyline class="st2" points="42.8,48.1 41.8,48.1 41.8,47.1 			"/>
			<line class="st3" x1="41.8" y1="46.1" x2="41.8" y2="20.2"/>
			<polyline class="st2" points="41.8,19.7 41.8,18.7 42.8,18.7 			"/>
			<line class="st3" x1="43.8" y1="18.7" x2="69.7" y2="18.7"/>
			<polyline class="st2" points="70.2,18.7 71.2,18.7 71.2,19.7 			"/>
			<line class="st3" x1="71.2" y1="20.7" x2="71.2" y2="46.6"/>
		</g>
	</g>
	<g>
		<rect x="41.8" y="64.6" class="st1" width="29.4" height="29.4"/>
		<g>
			<polyline class="st2" points="71.2,93 71.2,94 70.2,94 			"/>
			<line class="st3" x1="69.2" y1="94" x2="43.3" y2="94"/>
			<polyline class="st2" points="42.8,94 41.8,94 41.8,93 			"/>
			<line class="st3" x1="41.8" y1="92" x2="41.8" y2="66.1"/>
			<polyline class="st2" points="41.8,65.6 41.8,64.6 42.8,64.6 			"/>
			<line class="st3" x1="43.8" y1="64.6" x2="69.7" y2="64.6"/>
			<polyline class="st2" points="70.2,64.6 71.2,64.6 71.2,65.6 			"/>
			<line class="st3" x1="71.2" y1="66.6" x2="71.2" y2="92.5"/>
		</g>
	</g>
	<line class="st4" x1="35.1" y1="56.4" x2="77.8" y2="56.4"/>
</g>
</svg>
