<?xml version="1.0" encoding="utf-8"?>
<!-- Generator: Adobe Illustrator 19.1.0, SVG Export Plug-In . SVG Version: 6.00 Build 0)  -->
<!DOCTYPE svg PUBLIC "-//W3C//DTD SVG 1.1//EN" "http://www.w3.org/Graphics/SVG/1.1/DTD/svg11.dtd">
<svg version="1.1" id="Layer_1" xmlns="http://www.w3.org/2000/svg" xmlns:xlink="http://www.w3.org/1999/xlink" x="0px" y="0px"
	 viewBox="0 0 113 111" style="enable-background:new 0 0 113 111;" xml:space="preserve">
<style type="text/css">
	.st0{fill:#535E67;}
	.st1{fill:#E3E5EA;}
	.st2{fill:none;stroke:#535E67;stroke-width:2;stroke-linejoin:round;}
	.st3{fill:none;stroke:#535E67;stroke-width:2;stroke-linejoin:round;stroke-dasharray:1.9552,0.9776;}
	.st4{fill:none;stroke:#535E67;stroke-width:2;stroke-linecap:round;stroke-linejoin:round;stroke-miterlimit:10;}
	.st5{fill:#E86F6D;}
	.st6{fill:none;stroke:#E05552;stroke-width:2;stroke-linejoin:round;}
	.st7{fill:none;stroke:#E05552;stroke-width:2;stroke-linejoin:round;stroke-dasharray:1.9518,0.9759;}
	.st8{fill:none;stroke:#535E67;stroke-width:2;stroke-linejoin:round;stroke-dasharray:2.1159,1.058;}
	.st9{fill:none;stroke:#E05552;stroke-width:2;stroke-linejoin:round;stroke-dasharray:1.876,0.938;}
	.st10{fill:none;stroke:#E05552;stroke-width:2;stroke-linejoin:round;stroke-dasharray:1.5266,0.7633;}
	.st11{fill:none;stroke:#535E67;stroke-width:5;stroke-linecap:round;stroke-linejoin:round;stroke-miterlimit:10;}
	.st12{fill:none;}
</style>
<g>
	<path class="st0" d="M70.5,45.6c0,0.6-0.3,0.8-0.9,0.8h-4.7c0,1.1,0,2.1-0.1,3c0,0.9,0,1.8-0.1,2.7c0,0.8,0,1.7,0,2.4
		c0,0.8,0,1.6,0,2.3c0,2.7,0.1,4.8,0.3,6.4c0.2,1.6,0.4,2.8,0.8,3.7c0.4,0.9,0.8,1.4,1.4,1.7c0.6,0.3,1.2,0.4,2,0.4h0.8v1
		c0,0.6-0.7,0.9-2.1,0.9c-0.9,0-1.7-0.1-2.4-0.4c-0.7-0.3-1.3-0.8-1.7-1.5c-0.5-0.7-0.8-1.7-1.1-2.9c-0.2-1.2-0.4-2.8-0.4-4.6
		c0-1.6,0.1-3.7,0.2-6.2c0.2-2.5,0.3-5.5,0.3-8.8H51c-0.1,4.6-0.3,8.5-0.7,11.7c-0.4,3.1-1,5.7-1.6,7.6c-0.7,1.9-1.4,3.3-2.2,4.1
		C45.7,70.6,44.8,71,44,71c-0.3,0-0.6,0-0.8-0.1c-0.3-0.1-0.4-0.2-0.4-0.4v-1.8h0.5c0.5,0,1-0.4,1.6-1.2c0.6-0.8,1.2-2.1,1.7-3.9
		c0.5-1.8,1-4.1,1.4-6.9c0.4-2.8,0.6-6.3,0.7-10.3h-6.3v-1.1c0-0.2,0.1-0.5,0.3-0.7c0.2-0.2,0.5-0.3,0.8-0.3h26.9V45.6z"/>
</g>
</svg>
