<?xml version="1.0" encoding="utf-8"?>
<!-- Generator: Adobe Illustrator 19.1.0, SVG Export Plug-In . SVG Version: 6.00 Build 0)  -->
<!DOCTYPE svg PUBLIC "-//W3C//DTD SVG 1.1//EN" "http://www.w3.org/Graphics/SVG/1.1/DTD/svg11.dtd">
<svg version="1.1" id="Layer_1" xmlns="http://www.w3.org/2000/svg" xmlns:xlink="http://www.w3.org/1999/xlink" x="0px" y="0px"
	 viewBox="0 0 113 111" style="enable-background:new 0 0 113 111;" xml:space="preserve">
<style type="text/css">
	.st0{fill:#535E67;}
	.st1{fill:#E3E5EA;}
	.st2{fill:none;stroke:#535E67;stroke-width:2;stroke-linejoin:round;}
	.st3{fill:none;stroke:#535E67;stroke-width:2;stroke-linejoin:round;stroke-dasharray:1.9552,0.9776;}
	.st4{fill:none;stroke:#535E67;stroke-width:2;stroke-linecap:round;stroke-linejoin:round;stroke-miterlimit:10;}
	.st5{fill:#E86F6D;}
	.st6{fill:none;stroke:#E05552;stroke-width:2;stroke-linejoin:round;}
	.st7{fill:none;stroke:#E05552;stroke-width:2;stroke-linejoin:round;stroke-dasharray:1.9518,0.9759;}
	.st8{fill:none;stroke:#535E67;stroke-width:2;stroke-linejoin:round;stroke-dasharray:2.1159,1.058;}
	.st9{fill:none;stroke:#E05552;stroke-width:2;stroke-linejoin:round;stroke-dasharray:1.876,0.938;}
	.st10{fill:none;stroke:#E05552;stroke-width:2;stroke-linejoin:round;stroke-dasharray:1.5266,0.7633;}
	.st11{fill:none;stroke:#535E67;stroke-width:5;stroke-linecap:round;stroke-linejoin:round;stroke-miterlimit:10;}
	.st12{fill:none;}
</style>
<g>
	<g>
		<rect x="39.2" y="40.7" class="st1" width="29.4" height="29.4"/>
		<g>
			<polyline class="st2" points="68.6,69 68.6,70 67.6,70 			"/>
			<line class="st3" x1="66.6" y1="70" x2="40.7" y2="70"/>
			<polyline class="st2" points="40.2,70 39.2,70 39.2,69 			"/>
			<line class="st3" x1="39.2" y1="68.1" x2="39.2" y2="42.2"/>
			<polyline class="st2" points="39.2,41.7 39.2,40.7 40.2,40.7 			"/>
			<line class="st3" x1="41.2" y1="40.7" x2="67.1" y2="40.7"/>
			<polyline class="st2" points="67.6,40.7 68.6,40.7 68.6,41.7 			"/>
			<line class="st3" x1="68.6" y1="42.6" x2="68.6" y2="68.6"/>
		</g>
	</g>
	<path class="st4" d="M32.1,32.4c0,0-11.5,20.5,0,46.2"/>
	<path class="st4" d="M75.7,78.6c0,0,11.5-20.5,0-46.2"/>
</g>
</svg>
