<?xml version="1.0" encoding="utf-8"?>
<!-- Generator: Adobe Illustrator 19.1.0, SVG Export Plug-In . SVG Version: 6.00 Build 0)  -->
<!DOCTYPE svg PUBLIC "-//W3C//DTD SVG 1.1//EN" "http://www.w3.org/Graphics/SVG/1.1/DTD/svg11.dtd">
<svg version="1.1" id="Layer_1" xmlns="http://www.w3.org/2000/svg" xmlns:xlink="http://www.w3.org/1999/xlink" x="0px" y="0px"
	 viewBox="0 0 113 111" style="enable-background:new 0 0 113 111;" xml:space="preserve">
<style type="text/css">
	.st0{fill:#535E67;}
	.st1{fill:#E3E5EA;}
	.st2{fill:none;stroke:#535E67;stroke-width:2;stroke-linejoin:round;}
	.st3{fill:none;stroke:#535E67;stroke-width:2;stroke-linejoin:round;stroke-dasharray:1.9552,0.9776;}
	.st4{fill:none;stroke:#535E67;stroke-width:2;stroke-linecap:round;stroke-linejoin:round;stroke-miterlimit:10;}
	.st5{fill:#E86F6D;}
	.st6{fill:none;stroke:#E05552;stroke-width:2;stroke-linejoin:round;}
	.st7{fill:none;stroke:#E05552;stroke-width:2;stroke-linejoin:round;stroke-dasharray:1.9518,0.9759;}
	.st8{fill:none;stroke:#535E67;stroke-width:2;stroke-linejoin:round;stroke-dasharray:2.1159,1.058;}
	.st9{fill:none;stroke:#E05552;stroke-width:2;stroke-linejoin:round;stroke-dasharray:1.876,0.938;}
	.st10{fill:none;stroke:#E05552;stroke-width:2;stroke-linejoin:round;stroke-dasharray:1.5266,0.7633;}
	.st11{fill:none;stroke:#535E67;stroke-width:5;stroke-linecap:round;stroke-linejoin:round;stroke-miterlimit:10;}
	.st12{fill:none;}
</style>
<g>
	<g>
		<rect x="56.4" y="49.8" class="st1" width="29.4" height="29.4"/>
		<g>
			<polyline class="st2" points="85.8,78.2 85.8,79.2 84.8,79.2 			"/>
			<line class="st3" x1="83.8" y1="79.2" x2="57.9" y2="79.2"/>
			<polyline class="st2" points="57.4,79.2 56.4,79.2 56.4,78.2 			"/>
			<line class="st3" x1="56.4" y1="77.2" x2="56.4" y2="51.3"/>
			<polyline class="st2" points="56.4,50.8 56.4,49.8 57.4,49.8 			"/>
			<line class="st3" x1="58.4" y1="49.8" x2="84.3" y2="49.8"/>
			<polyline class="st2" points="84.8,49.8 85.8,49.8 85.8,50.8 			"/>
			<line class="st3" x1="85.8" y1="51.8" x2="85.8" y2="77.7"/>
		</g>
	</g>
	<g>
		<rect x="22.4" y="31.8" class="st5" width="14.7" height="14.7"/>
		<g>
			<polyline class="st6" points="37.1,45.5 37.1,46.5 36.1,46.5 			"/>
			<line class="st7" x1="35.1" y1="46.5" x2="23.9" y2="46.5"/>
			<polyline class="st6" points="23.4,46.5 22.4,46.5 22.4,45.5 			"/>
			<line class="st7" x1="22.4" y1="44.6" x2="22.4" y2="33.3"/>
			<polyline class="st6" points="22.4,32.8 22.4,31.8 23.4,31.8 			"/>
			<line class="st7" x1="24.4" y1="31.8" x2="35.6" y2="31.8"/>
			<polyline class="st6" points="36.1,31.8 37.1,31.8 37.1,32.8 			"/>
			<line class="st7" x1="37.1" y1="33.8" x2="37.1" y2="45"/>
		</g>
	</g>
	<polyline class="st4" points="27.5,64.5 33.1,59.5 38.8,79.2 49.4,31.8 89.8,31.8 	"/>
</g>
</svg>
