<?xml version="1.0" encoding="utf-8"?>
<!-- Generator: Adobe Illustrator 19.1.0, SVG Export Plug-In . SVG Version: 6.00 Build 0)  -->
<!DOCTYPE svg PUBLIC "-//W3C//DTD SVG 1.1//EN" "http://www.w3.org/Graphics/SVG/1.1/DTD/svg11.dtd">
<svg version="1.1" id="Layer_1" xmlns="http://www.w3.org/2000/svg" xmlns:xlink="http://www.w3.org/1999/xlink" x="0px" y="0px"
	 viewBox="0 0 113 111" style="enable-background:new 0 0 113 111;" xml:space="preserve">
<style type="text/css">
	.st0{fill:#535E67;}
	.st1{fill:#E3E5EA;}
	.st2{fill:none;stroke:#535E67;stroke-width:2;stroke-linejoin:round;}
	.st3{fill:none;stroke:#535E67;stroke-width:2;stroke-linejoin:round;stroke-dasharray:1.9552,0.9776;}
	.st4{fill:none;stroke:#535E67;stroke-width:2;stroke-linecap:round;stroke-linejoin:round;stroke-miterlimit:10;}
	.st5{fill:#E86F6D;}
	.st6{fill:none;stroke:#E05552;stroke-width:2;stroke-linejoin:round;}
	.st7{fill:none;stroke:#E05552;stroke-width:2;stroke-linejoin:round;stroke-dasharray:1.9518,0.9759;}
	.st8{fill:none;stroke:#535E67;stroke-width:2;stroke-linejoin:round;stroke-dasharray:2.1159,1.058;}
	.st9{fill:none;stroke:#E05552;stroke-width:2;stroke-linejoin:round;stroke-dasharray:1.876,0.938;}
	.st10{fill:none;stroke:#E05552;stroke-width:2;stroke-linejoin:round;stroke-dasharray:1.5266,0.7633;}
	.st11{fill:none;stroke:#535E67;stroke-width:5;stroke-linecap:round;stroke-linejoin:round;stroke-miterlimit:10;}
	.st12{fill:none;}
</style>
<g>
	<g>
		<rect x="61.7" y="58" class="st5" width="14.7" height="14.7"/>
		<g>
			<polyline class="st6" points="76.4,71.7 76.4,72.7 75.4,72.7 			"/>
			<line class="st7" x1="74.4" y1="72.7" x2="63.2" y2="72.7"/>
			<polyline class="st6" points="62.7,72.7 61.7,72.7 61.7,71.7 			"/>
			<line class="st7" x1="61.7" y1="70.7" x2="61.7" y2="59.5"/>
			<polyline class="st6" points="61.7,59 61.7,58 62.7,58 			"/>
			<line class="st7" x1="63.7" y1="58" x2="74.9" y2="58"/>
			<polyline class="st6" points="75.4,58 76.4,58 76.4,59 			"/>
			<line class="st7" x1="76.4" y1="60" x2="76.4" y2="71.2"/>
		</g>
	</g>
	<g>
		<rect x="26.1" y="32.7" class="st1" width="29.4" height="29.4"/>
		<g>
			<polyline class="st2" points="55.5,61.1 55.5,62.1 54.5,62.1 			"/>
			<line class="st3" x1="53.5" y1="62.1" x2="27.6" y2="62.1"/>
			<polyline class="st2" points="27.1,62.1 26.1,62.1 26.1,61.1 			"/>
			<line class="st3" x1="26.1" y1="60.1" x2="26.1" y2="34.2"/>
			<polyline class="st2" points="26.1,33.7 26.1,32.7 27.1,32.7 			"/>
			<line class="st3" x1="28.1" y1="32.7" x2="54" y2="32.7"/>
			<polyline class="st2" points="54.5,32.7 55.5,32.7 55.5,33.7 			"/>
			<line class="st3" x1="55.5" y1="34.7" x2="55.5" y2="60.6"/>
		</g>
	</g>
</g>
</svg>
