<?xml version="1.0" encoding="utf-8"?>
<!-- Generator: Adobe Illustrator 19.1.0, SVG Export Plug-In . SVG Version: 6.00 Build 0)  -->
<!DOCTYPE svg PUBLIC "-//W3C//DTD SVG 1.1//EN" "http://www.w3.org/Graphics/SVG/1.1/DTD/svg11.dtd">
<svg version="1.1" id="Layer_1" xmlns="http://www.w3.org/2000/svg" xmlns:xlink="http://www.w3.org/1999/xlink" x="0px" y="0px"
	 viewBox="0 0 113 111" style="enable-background:new 0 0 113 111;" xml:space="preserve">
<style type="text/css">
	.st0{fill:#535E67;}
	.st1{fill:#E3E5EA;}
	.st2{fill:none;stroke:#535E67;stroke-width:2;stroke-linejoin:round;}
	.st3{fill:none;stroke:#535E67;stroke-width:2;stroke-linejoin:round;stroke-dasharray:1.9552,0.9776;}
	.st4{fill:none;stroke:#535E67;stroke-width:2;stroke-linecap:round;stroke-linejoin:round;stroke-miterlimit:10;}
	.st5{fill:#E86F6D;}
	.st6{fill:none;stroke:#E05552;stroke-width:2;stroke-linejoin:round;}
	.st7{fill:none;stroke:#E05552;stroke-width:2;stroke-linejoin:round;stroke-dasharray:1.9518,0.9759;}
	.st8{fill:none;stroke:#535E67;stroke-width:2;stroke-linejoin:round;stroke-dasharray:2.1159,1.058;}
	.st9{fill:none;stroke:#E05552;stroke-width:2;stroke-linejoin:round;stroke-dasharray:1.876,0.938;}
	.st10{fill:none;stroke:#E05552;stroke-width:2;stroke-linejoin:round;stroke-dasharray:1.5266,0.7633;}
	.st11{fill:none;stroke:#535E67;stroke-width:5;stroke-linecap:round;stroke-linejoin:round;stroke-miterlimit:10;}
	.st12{fill:none;}
</style>
<polyline class="st4" points="49.4,43.5 32.3,43.5 42.1,56.1 32.3,68.7 49.4,68.7 "/>
<g>
	<rect x="55.3" y="43.5" class="st1" width="25.3" height="25.3"/>
	<g>
		<polyline class="st2" points="80.6,67.7 80.6,68.7 79.6,68.7 		"/>
		<line class="st8" x1="78.6" y1="68.7" x2="56.9" y2="68.7"/>
		<polyline class="st2" points="56.3,68.7 55.3,68.7 55.3,67.7 		"/>
		<line class="st8" x1="55.3" y1="66.7" x2="55.3" y2="45"/>
		<polyline class="st2" points="55.3,44.5 55.3,43.5 56.3,43.5 		"/>
		<line class="st8" x1="57.4" y1="43.5" x2="79.1" y2="43.5"/>
		<polyline class="st2" points="79.6,43.5 80.6,43.5 80.6,44.5 		"/>
		<line class="st8" x1="80.6" y1="45.5" x2="80.6" y2="67.2"/>
	</g>
</g>
<g>
	<rect x="32.3" y="73" class="st5" width="17" height="7.3"/>
	<g>
		<polyline class="st6" points="49.4,79.4 49.4,80.4 48.4,80.4 		"/>
		<line class="st9" x1="47.4" y1="80.4" x2="33.8" y2="80.4"/>
		<polyline class="st6" points="33.3,80.4 32.3,80.4 32.3,79.4 		"/>
		<line class="st10" x1="32.3" y1="78.6" x2="32.3" y2="74.4"/>
		<polyline class="st6" points="32.3,74 32.3,73 33.3,73 		"/>
		<line class="st9" x1="34.3" y1="73" x2="47.9" y2="73"/>
		<polyline class="st6" points="48.4,73 49.4,73 49.4,74 		"/>
		<line class="st10" x1="49.4" y1="74.8" x2="49.4" y2="79"/>
	</g>
</g>
<g>
	<rect x="32.3" y="31.8" class="st5" width="17" height="7.3"/>
	<g>
		<polyline class="st6" points="49.4,38.2 49.4,39.2 48.4,39.2 		"/>
		<line class="st9" x1="47.4" y1="39.2" x2="33.8" y2="39.2"/>
		<polyline class="st6" points="33.3,39.2 32.3,39.2 32.3,38.2 		"/>
		<line class="st10" x1="32.3" y1="37.4" x2="32.3" y2="33.2"/>
		<polyline class="st6" points="32.3,32.8 32.3,31.8 33.3,31.8 		"/>
		<line class="st9" x1="34.3" y1="31.8" x2="47.9" y2="31.8"/>
		<polyline class="st6" points="48.4,31.8 49.4,31.8 49.4,32.8 		"/>
		<line class="st10" x1="49.4" y1="33.6" x2="49.4" y2="37.8"/>
	</g>
</g>
</svg>
