<?xml version="1.0" encoding="utf-8"?>
<!-- Generator: Adobe Illustrator 19.1.0, SVG Export Plug-In . SVG Version: 6.00 Build 0)  -->
<!DOCTYPE svg PUBLIC "-//W3C//DTD SVG 1.1//EN" "http://www.w3.org/Graphics/SVG/1.1/DTD/svg11.dtd">
<svg version="1.1" id="Layer_1" xmlns="http://www.w3.org/2000/svg" xmlns:xlink="http://www.w3.org/1999/xlink" x="0px" y="0px"
	 viewBox="0 0 113 111" style="enable-background:new 0 0 113 111;" xml:space="preserve">
<style type="text/css">
	.st0{fill:#535E67;}
	.st1{fill:#E3E5EA;}
	.st2{fill:none;stroke:#535E67;stroke-width:2;stroke-linejoin:round;}
	.st3{fill:none;stroke:#535E67;stroke-width:2;stroke-linejoin:round;stroke-dasharray:1.9552,0.9776;}
	.st4{fill:none;stroke:#535E67;stroke-width:2;stroke-linecap:round;stroke-linejoin:round;stroke-miterlimit:10;}
	.st5{fill:#E86F6D;}
	.st6{fill:none;stroke:#E05552;stroke-width:2;stroke-linejoin:round;}
	.st7{fill:none;stroke:#E05552;stroke-width:2;stroke-linejoin:round;stroke-dasharray:1.9518,0.9759;}
	.st8{fill:none;stroke:#535E67;stroke-width:2;stroke-linejoin:round;stroke-dasharray:2.1159,1.058;}
	.st9{fill:none;stroke:#E05552;stroke-width:2;stroke-linejoin:round;stroke-dasharray:1.876,0.938;}
	.st10{fill:none;stroke:#E05552;stroke-width:2;stroke-linejoin:round;stroke-dasharray:1.5266,0.7633;}
	.st11{fill:none;stroke:#535E67;stroke-width:5;stroke-linecap:round;stroke-linejoin:round;stroke-miterlimit:10;}
	.st12{fill:none;}
</style>
<g>
	<g>
		<rect x="65.2" y="32.7" class="st5" width="14.7" height="14.7"/>
		<g>
			<polyline class="st6" points="79.9,33.7 79.9,32.7 78.9,32.7 			"/>
			<line class="st7" x1="77.9" y1="32.7" x2="66.7" y2="32.7"/>
			<polyline class="st6" points="66.2,32.7 65.2,32.7 65.2,33.7 			"/>
			<line class="st7" x1="65.2" y1="34.7" x2="65.2" y2="45.9"/>
			<polyline class="st6" points="65.2,46.4 65.2,47.4 66.2,47.4 			"/>
			<line class="st7" x1="67.2" y1="47.4" x2="78.4" y2="47.4"/>
			<polyline class="st6" points="78.9,47.4 79.9,47.4 79.9,46.4 			"/>
			<line class="st7" x1="79.9" y1="45.4" x2="79.9" y2="34.2"/>
		</g>
	</g>
	<g>
		<rect x="29.6" y="43.3" class="st1" width="29.4" height="29.4"/>
		<g>
			<polyline class="st2" points="58.9,44.3 58.9,43.3 57.9,43.3 			"/>
			<line class="st3" x1="57" y1="43.3" x2="31.1" y2="43.3"/>
			<polyline class="st2" points="30.6,43.3 29.6,43.3 29.6,44.3 			"/>
			<line class="st3" x1="29.6" y1="45.3" x2="29.6" y2="71.2"/>
			<polyline class="st2" points="29.6,71.7 29.6,72.7 30.6,72.7 			"/>
			<line class="st3" x1="31.6" y1="72.7" x2="57.5" y2="72.7"/>
			<polyline class="st2" points="57.9,72.7 58.9,72.7 58.9,71.7 			"/>
			<line class="st3" x1="58.9" y1="70.7" x2="58.9" y2="44.8"/>
		</g>
	</g>
</g>
</svg>
