<?xml version="1.0" encoding="UTF-8" standalone="no"?>
<svg width="33px" height="30px" viewBox="0 0 33 30" version="1.1" xmlns="http://www.w3.org/2000/svg" xmlns:xlink="http://www.w3.org/1999/xlink">
    <!-- Generator: Sketch 41.2 (35397) - http://www.bohemiancoding.com/sketch -->
    <title>Interactive</title>
    <desc>Created with Sketch.</desc>
    <defs></defs>
    <g id="Player-Theme" stroke="none" stroke-width="1" fill="none" fill-rule="evenodd">
        <g id="Seafoam-StyleGuide" transform="translate(-975.000000, -623.000000)" fill="#676767">
            <g id="Interactive" transform="translate(975.000000, 623.000000)">
                <path d="M33.021269,15.193012 C33.0425943,14.193253 32.5419918,13.2140964 31.5693412,12.3440964 C31.5935581,12.2128916 31.6058473,12.0838554 31.6058473,11.9548193 C31.6058473,10.6890361 30.5757268,9.65963855 29.3095822,9.65963855 C28.7395822,9.65963855 28.2013894,9.87036145 27.7828352,10.2484337 C27.1409075,10.0120482 26.4266906,9.78975904 25.6524738,9.58481928 C26.9428352,4.84843373 26.5286184,1.51084337 24.49404,0.387108434 C24.0415099,0.136987952 23.5297027,0.0101204819 22.9723533,0.0101204819 C21.1813894,0.0101204819 18.9031967,1.36771084 16.5194617,3.84614458 C14.1364497,1.36120482 11.8586184,0 10.0672931,0 C9.51283522,0 9.00247378,0.126144578 8.5503051,0.374819277 C7.76560631,0.806746988 6.82440149,1.80831325 6.67150992,4.12807229 C5.84488342,4.48481928 5.27958221,5.31361446 5.27958221,6.2360241 C5.27958221,7.34060241 6.07006414,8.26987952 7.11608823,8.48421687 C7.17464245,8.74915663 7.23608823,9.00722892 7.30078703,9.2613253 C2.69994366,10.3322892 0.0491002831,12.2237349 0.000666548188,14.4914458 C-0.0398153795,16.3890361 1.76488342,18.1250602 5.08187137,19.3789157 C5.76283522,19.6373494 6.53307619,19.8798795 7.37705209,20.1028916 C7.28705209,20.4314458 7.20608823,20.7527711 7.13307619,21.0643373 C6.07801595,21.2714458 5.27958221,22.2036145 5.27958221,23.3183133 C5.27958221,24.2436145 5.82464245,25.0550602 6.6476545,25.4154217 C6.77054607,27.8226506 7.72548583,28.8556627 8.52753402,29.2991566 C8.98042558,29.5485542 9.49259426,29.6754217 10.0495822,29.6754217 C11.8405461,29.6754217 14.1187388,28.3178313 16.5024738,25.839759 C18.8851244,28.3239759 21.1629557,29.6851807 22.9550039,29.6851807 C23.5094617,29.6851807 24.0198232,29.5590361 24.4719918,29.3110843 C26.4556063,28.2195181 26.9034376,24.9954217 25.7236786,20.4231325 C30.3227147,19.3518072 32.9728352,17.4603614 33.021269,15.193012 L33.021269,15.193012 Z M23.5759678,27.6816867 C23.4021123,27.7778313 23.1931967,27.8259036 22.9550039,27.8259036 C21.6819918,27.8259036 19.8028352,26.596988 17.7599437,24.4377108 C18.5782569,23.4654217 19.3878955,22.3821687 20.1729557,21.2092771 C21.471269,21.1254217 22.7215099,20.9837349 23.8998232,20.7863855 C24.9534376,24.816506 24.4882569,27.1796386 23.5759678,27.6816867 L23.5759678,27.6816867 Z M10.0495822,27.8157831 C9.80994366,27.8157831 9.6003051,27.766988 9.42572679,27.6708434 C8.89910028,27.380241 8.57777498,26.5861446 8.50620872,25.4150602 C9.31873884,25.0525301 9.87211233,24.2320482 9.87211233,23.3183133 C9.87211233,22.580241 9.52584727,21.9079518 8.94536534,21.4803614 C9.01693161,21.173494 9.09789546,20.8546988 9.18825691,20.526506 C10.3127147,20.753494 11.5058473,20.9327711 12.7448834,21.0614458 C13.557775,22.2907229 14.3974135,23.4231325 15.2478955,24.4355422 C13.2031967,26.5893976 11.3236786,27.8157831 10.0495822,27.8157831 L10.0495822,27.8157831 Z M9.44705209,2.00385542 C9.62054607,1.90807229 9.82910028,1.85963855 10.0672931,1.85963855 C11.341028,1.85963855 13.2198232,3.08855422 15.2627147,5.24819277 C14.4458473,6.21831325 13.6365702,7.30192771 12.8500641,8.47698795 C11.5539196,8.56048193 10.3051244,8.70180723 9.12717257,8.89843373 C9.05813643,8.63240964 8.99307619,8.36168675 8.93090751,8.0826506 C9.51355811,7.65506024 9.87211233,6.9686747 9.87211233,6.2360241 C9.87211233,5.3186747 9.33861836,4.51518072 8.53042558,4.14939759 C8.61717257,3.03939759 8.93741354,2.2839759 9.44705209,2.00385542 L9.44705209,2.00385542 Z M22.9723533,1.86939759 C23.2109075,1.86939759 23.4209075,1.91855422 23.5954858,2.0146988 C24.5363292,2.53409639 24.9895822,4.98253012 23.8434376,9.16120482 C22.7135581,8.93313253 21.5171726,8.75277108 20.2774135,8.62409639 C19.464522,7.39554217 18.6248834,6.26313253 17.7747629,5.25 C19.8191003,3.09578313 21.6989798,1.86939759 22.9723533,1.86939759 L22.9723533,1.86939759 Z M10.8671726,11.7260241 C10.7081364,12.0140964 10.5494617,12.3115663 10.3850039,12.6285542 C10.120787,11.9746988 9.88187137,11.330241 9.67078703,10.7006024 C10.294281,10.6008434 10.9398232,10.5173494 11.601269,10.449759 C11.3457268,10.8777108 11.1024738,11.300241 10.8671726,11.7260241 L10.8671726,11.7260241 Z M9.74018462,18.7416867 C9.93138944,18.1919277 10.1453653,17.6259036 10.381028,17.0475904 C10.54404,17.3638554 10.7023533,17.6613253 10.8617509,17.9515663 C11.0562087,18.3043373 11.2600641,18.6621687 11.4780159,19.0312048 C10.8751244,18.9459036 10.2946425,18.8490361 9.74018462,18.7416867 L9.74018462,18.7416867 Z M11.3562087,14.8391566 C11.7230762,14.0728916 12.1054858,13.3290361 12.4947629,12.6249398 C12.9209075,11.8525301 13.390787,11.0663855 13.8935581,10.2842169 C14.80404,10.2451807 15.6982569,10.2346988 16.6087388,10.2553012 C17.4657268,10.2737349 18.3371726,10.3189157 19.2013894,10.389759 C19.6806665,11.1440964 20.127775,11.8966265 20.5311485,12.63 C20.9316304,13.3586747 21.31404,14.103253 21.6693412,14.846747 C21.3144015,15.5877108 20.9309075,16.3315663 20.5278955,17.0613253 C20.1035581,17.829759 19.6336786,18.6162651 19.1283774,19.4024096 C18.2291003,19.4410843 17.3291003,19.4508434 16.4135581,19.430241 C15.5572931,19.4121687 14.6862087,19.366988 13.8198232,19.2961446 C13.3409075,18.5418072 12.8941605,17.7892771 12.490787,17.0555422 C12.1015099,16.3471084 11.7201846,15.6028916 11.3562087,14.8391566 L11.3562087,14.8391566 Z M21.421028,19.236506 C21.6765702,18.8089157 21.9198232,18.3860241 22.1547629,17.960241 C22.3188593,17.663494 22.4818714,17.3595181 22.6441605,17.049759 C22.9098232,17.7057831 23.1498232,18.3524096 23.3616304,18.9845783 C22.7327147,19.0850602 22.084281,19.1689157 21.421028,19.236506 L21.421028,19.236506 Z M23.2878955,10.9449398 C23.0952449,11.5026506 22.881269,12.0708434 22.6470521,12.6451807 C22.4869316,12.3368675 22.324281,12.0325301 22.1601846,11.7339759 C21.9650039,11.3793976 21.7604256,11.0215663 21.544281,10.6543373 C22.1478955,10.74 22.7305461,10.8368675 23.2878955,10.9449398 L23.2878955,10.9449398 Z M16.6484979,8.39638554 C16.3231967,8.38951807 16.000787,8.38626506 15.6801846,8.38626506 C15.5150039,8.38626506 15.3498232,8.3873494 15.1850039,8.38915663 C15.6183774,7.79457831 16.06404,7.22168675 16.5176545,6.67590361 C16.9828352,7.23759036 17.4397027,7.82819277 17.8850039,8.44301205 C17.4509075,8.42024096 17.041028,8.40506024 16.6484979,8.39638554 L16.6484979,8.39638554 Z M7.82994366,11.053012 C8.23548583,12.2974699 8.7303051,13.5675904 9.30391956,14.8377108 C8.77150992,16.0109639 8.30705209,17.180241 7.91958221,18.323494 C7.11211233,18.1120482 6.38018462,17.8828916 5.73934125,17.64 C3.32488342,16.7266265 1.83825691,15.5353012 1.85994366,14.5304819 C1.88741354,13.2191566 4.21331715,11.873494 7.82994366,11.053012 L7.82994366,11.053012 Z M16.374522,21.2891566 C16.8653653,21.2996386 17.3518714,21.3018072 17.8376545,21.296747 C17.4039196,21.8916867 16.9582569,22.4642169 16.5050039,23.01 C16.0391003,22.4472289 15.5818714,21.856988 15.1372931,21.2425301 C15.5703051,21.2656627 15.9769316,21.2808434 16.374522,21.2891566 L16.374522,21.2891566 Z M25.1995822,18.633253 C24.7980159,17.4025301 24.3017509,16.1324096 23.7209075,14.8478313 C24.2580159,13.6655422 24.7235581,12.4966265 25.1074135,11.363494 C25.7974135,11.5438554 26.4353653,11.7393976 27.0136786,11.946506 L27.0136786,11.9548193 C27.0136786,13.2213253 28.0434376,14.2518072 29.3095822,14.2518072 C29.7429557,14.2518072 30.1589798,14.1318072 30.5186184,13.9073494 C30.8641605,14.2546988 31.1717509,14.6949398 31.1619918,15.1539759 C31.134522,16.4671084 28.8115099,17.813494 25.1995822,18.633253 L25.1995822,18.633253 Z" id="Fill-1-Copy"></path>
            </g>
        </g>
    </g>
</svg>