<?xml version="1.0" encoding="UTF-8" standalone="no"?>
<svg width="30px" height="30px" viewBox="0 0 30 30" version="1.1" xmlns="http://www.w3.org/2000/svg" xmlns:xlink="http://www.w3.org/1999/xlink">
    <!-- Generator: Sketch 41.2 (35397) - http://www.bohemiancoding.com/sketch -->
    <title>TextResource Copy 2</title>
    <desc>Created with Sketch.</desc>
    <defs></defs>
    <g id="Player-Theme" stroke="none" stroke-width="1" fill="none" fill-rule="evenodd">
        <g id="Seafoam-StyleGuide" transform="translate(-1145.000000, -419.000000)" fill="#676767">
            <g id="TextResource-Copy-2" transform="translate(1145.000000, 419.000000)">
                <g id="Page-1">
                    <path d="M25.9596,29.7496 L3.7892,29.7496 C1.6996,29.7496 0,28.0496 0,25.96 L0,3.79 C0,1.7 1.6996,0 3.7892,0 L25.9596,0 C28.0496,0 29.7496,1.7 29.7496,3.79 L29.7496,25.96 C29.7496,28.0496 28.0496,29.7496 25.9596,29.7496 L25.9596,29.7496 Z M3.7892,2.7068 C3.1928,2.7068 2.7068,3.1928 2.7068,3.79 L2.7068,25.96 C2.7068,26.5564 3.1928,27.0424 3.7892,27.0424 L25.9596,27.0424 C26.5564,27.0424 27.0424,26.5564 27.0424,25.96 L27.0424,3.79 C27.0424,3.1928 26.5564,2.7068 25.9596,2.7068 L3.7892,2.7068 L3.7892,2.7068 Z" id="Fill-1"></path>
                    <path d="M22.6153846,9.5 L7.38461538,9.5 C6.48942158,9.5 6,9.16425 6,8.75 C6,8.33575 6.48942158,8 7.38461538,8 L22.6153846,8 C23.5105784,8 24,8.33575 24,8.75 C24,9.16425 23.5105784,9.5 22.6153846,9.5" id="Fill-3"></path>
                    <path d="M22.6153846,13.5 L7.38461538,13.5 C6.48942158,13.5 6,13.16425 6,12.75 C6,12.33575 6.48942158,12 7.38461538,12 L22.6153846,12 C23.5105784,12 24,12.33575 24,12.75 C24,13.16425 23.5105784,13.5 22.6153846,13.5" id="Fill-4"></path>
                    <path d="M22.6153846,18.5 L7.38461538,18.5 C6.48942158,18.5 6,18.1645 6,17.75 C6,17.33575 6.48942158,17 7.38461538,17 L22.6153846,17 C23.5105784,17 24,17.33575 24,17.75 C24,18.1645 23.5105784,18.5 22.6153846,18.5" id="Fill-5"></path>
                    <path d="M22.6153846,22.5 L7.38461538,22.5 C6.48942158,22.5 6,22.16425 6,21.75 C6,21.3355 6.48942158,21 7.38461538,21 L22.6153846,21 C23.5105784,21 24,21.3355 24,21.75 C24,22.16425 23.5105784,22.5 22.6153846,22.5" id="Fill-6"></path>
                </g>
            </g>
        </g>
    </g>
</svg>