<?xml version="1.0" encoding="UTF-8" standalone="no"?>
<svg width="30px" height="30px" viewBox="0 0 30 30" version="1.1" xmlns="http://www.w3.org/2000/svg" xmlns:xlink="http://www.w3.org/1999/xlink">
    <!-- Generator: Sketch 41 (35326) - http://www.bohemiancoding.com/sketch -->
    <title>LightVideoResource Copy</title>
    <desc>Created with Sketch.</desc>
    <defs></defs>
    <g id="StyleGuide" stroke="none" stroke-width="1" fill="none" fill-rule="evenodd">
        <g id="Seafoam-StyleGuide" transform="translate(-889.000000, -420.000000)">
            <g id="LightVideoResource-Copy" transform="translate(889.000000, 420.000000)">
                <path d="M5.20584771,24 L2,24 L2,25.5 L5.10161102,25.5 C5.34673454,26.2282013 6.00812054,26.75 6.78571429,26.75 C7.56330803,26.75 8.22469403,26.2282013 8.46981755,25.5 L26,25.5 L26,24 L8.36558086,24 C8.06623581,23.405158 7.4711183,23 6.78571429,23 C6.10031027,23 5.50519276,23.405158 5.20584771,24 Z M30,28.5 C30,29.1268705 29.2133793,30 28.5714286,30 L1.42857143,30 C0.787448276,30 0,29.1268705 0,28.5 L0,1.5 C0,0.871262794 0.787448276,0 1.42857143,0 L28.5714286,0 C29.2133793,0 30,0.871262794 30,1.5 L30,28.5 Z M3,3 L27.2857143,3 L27.2857143,21 L3,21 L3,3 Z" id="Fill-1" fill="#959A9E"></path>
                <g id="Fill-3-+-Fill-4" transform="translate(1.000000, 23.000000)"></g>
                <path d="M12,9.06674757 C12,9.14513284 12.508437,8.88312245 13.6875,9.06674757 L18.75,12.4417476 C18.9055841,12.1788638 18.9055841,12.704282 18.75,12.4417476 L13.6875,15.8167476 C12.508437,16.0003727 12,15.7383623 12,15.8167476 L12,9.06674757" id="Fill-15" fill="#959A9E"></path>
            </g>
        </g>
    </g>
</svg>