<?xml version="1.0" encoding="UTF-8" standalone="no"?>
<svg width="30px" height="30px" viewBox="0 0 30 30" version="1.1" xmlns="http://www.w3.org/2000/svg" xmlns:xlink="http://www.w3.org/1999/xlink">
    <!-- Generator: Sketch 41.2 (35397) - http://www.bohemiancoding.com/sketch -->
    <title>VideoResource Copy 2</title>
    <desc>Created with Sketch.</desc>
    <defs></defs>
    <g id="Player-Theme" stroke="none" stroke-width="1" fill="none" fill-rule="evenodd">
        <g id="Seafoam-StyleGuide" transform="translate(-976.000000, -420.000000)">
            <g id="VideoResource-Copy-2" transform="translate(976.000000, 420.000000)">
                <path d="M5.74997871,24 L2.85714286,24 L2.85714286,25.5 L6.0712927,25.5 C6.39705955,25.9554007 6.91572524,26.25 7.5,26.25 C8.08427476,26.25 8.60294045,25.9554007 8.9287073,25.5 L26.8571429,25.5 L26.8571429,24 L9.25002129,24 C9.08463272,23.1439019 8.36406078,22.5 7.5,22.5 C6.63593922,22.5 5.91536728,23.1439019 5.74997871,24 Z M30,28.5 C30,29.1268705 29.2133793,30 28.5714286,30 L1.42857143,30 C0.787448276,30 0,29.1268705 0,28.5 L0,1.5 C0,0.871262794 0.787448276,0 1.42857143,0 L28.5714286,0 C29.2133793,0 30,0.871262794 30,1.5 L30,28.5 Z M3,3 L27.2857143,3 L27.2857143,21 L3,21 L3,3 Z" id="Fill-1" fill="#676767"></path>
                <g id="Fill-3-+-Fill-4" transform="translate(1.000000, 23.000000)"></g>
                <path d="M12,9.06674757 C12,9.14513284 12.508437,8.88312245 13.6875,9.06674757 L18.75,12.4417476 C18.9055841,12.1788638 18.9055841,12.704282 18.75,12.4417476 L13.6875,15.8167476 C12.508437,16.0003727 12,15.7383623 12,15.8167476 L12,9.06674757" id="Fill-15" fill="#676767"></path>
            </g>
        </g>
    </g>
</svg>