<?xml version="1.0" encoding="UTF-8" standalone="no"?>
<svg width="29px" height="29px" viewBox="0 0 29 29" version="1.1" xmlns="http://www.w3.org/2000/svg" xmlns:xlink="http://www.w3.org/1999/xlink">
    <!-- Generator: Sketch 41.2 (35397) - http://www.bohemiancoding.com/sketch -->
    <title>Imported EPS Copy 3</title>
    <desc>Created with Sketch.</desc>
    <defs></defs>
    <g id="Player-Theme" stroke="none" stroke-width="1" fill="none" fill-rule="evenodd">
        <g id="Seafoam-StyleGuide" transform="translate(-1147.000000, -549.000000)" fill="#676767">
            <g id="Imported-EPS-Copy-3" transform="translate(1147.000000, 549.000000)">
                <g id="Page-1">
                    <path d="M14.2545055,28.6153846 C6.45978022,28.6153846 0.118681319,22.2738462 0.118681319,14.4791209 C0.118681319,6.68483516 6.45978022,0.343296703 14.2545055,0.343296703 C22.0487912,0.343296703 28.3903297,6.68483516 28.3903297,14.4791209 C28.3903297,22.2738462 22.0487912,28.6153846 14.2545055,28.6153846 L14.2545055,28.6153846 Z M14.2545055,2.32131868 C7.55076923,2.32131868 2.0967033,7.77582418 2.0967033,14.4791209 C2.0967033,21.1828571 7.55076923,26.6373626 14.2545055,26.6373626 C20.9582418,26.6373626 26.4123077,21.1828571 26.4123077,14.4791209 C26.4123077,7.77582418 20.9582418,2.32131868 14.2545055,2.32131868 L14.2545055,2.32131868 Z" id="Fill-1"></path>
                    <polygon id="Fill-2" points="13.2654945 1.33230769 15.2435165 1.33230769 15.2435165 27.6259341 13.2654945 27.6259341"></polygon>
                    <path d="M11.5872527,28.1217582 C-1.50769231,12.4756044 11.5648352,0.83956044 11.698022,0.724395604 L12.9938462,2.2189011 L12.3459341,1.47164835 L12.9947253,2.21802198 C12.5107692,2.64 1.27736264,12.7208791 13.1046154,26.8518681 L11.5872527,28.1217582" id="Fill-3"></path>
                    <path d="M16.9551648,28.2334066 L15.6597802,26.7389011 L16.3076923,27.4861538 L15.6584615,26.7397802 C16.1428571,26.3178022 27.3758242,16.2364835 15.549011,2.10593407 L17.0659341,0.836043956 C30.1608791,16.4821978 17.0887912,28.1182418 16.9551648,28.2334066" id="Fill-4"></path>
                    <polygon id="Fill-5" points="3.19252747 7.52527473 25.7793407 7.52527473 25.7793407 9.5032967 3.19252747 9.5032967"></polygon>
                    <polygon id="Fill-6" points="3.19252747 19.2237363 25.7793407 19.2237363 25.7793407 21.2017582 3.19252747 21.2017582"></polygon>
                    <polygon id="Fill-7" points="1.12043956 13.4901099 27.4013187 13.4901099 27.4013187 15.4681319 1.12043956 15.4681319"></polygon>
                </g>
            </g>
        </g>
    </g>
</svg>