<svg xmlns="http://www.w3.org/2000/svg" style="display: none"><symbol viewBox="0 0 64 64" id="1f44d"><title>1f44d</title><path d="m31.8 27.1c0 0-4.4.9-.8-6.6 2.6-5.4 2.3-11.7 0-15-3.8-5.3-11.1-3.6-10.3-.5 2.6 10.5-3.3 13.7-6.3 20.3-3.1 6.7-2.8 16.3-1.4 24.8.9 5.3 3.2 11.9 11.5 11.9h11.5l-4.2-34.9" fill="#ffdd67"/><path d="m25.8 60.5c-8.3 0-10.1-6.6-11-11.9-1.4-8.5-1.6-15.3 1.1-22.2 3-7.5 6.1-7.7 6.1-22.5 0-.7.4-1.2.8-1.6-1.4.5-2.2 1.3-2.2 2.5 0 11.1-3.1 13.8-6.1 20.5-3.2 6.7-2.9 16.3-1.5 24.8.9 5.3 3.2 11.9 11.5 11.9h11.5v-1.5h-10.2" fill="#eba352"/><path d="m46 35.8h-14.2c-5 0-5-8.7 0-8.7h14.2c5 0 5 8.7 0 8.7" fill="#ffdd67"/><path d="m47.1 34.4h-14.2c-3.4 0-4.4-4-3.3-6.5-2.7 2.1-1.9 8 2.1 8h14.3c1.6 0 2.7-.9 3.3-2.2-.6.4-1.3.7-2.2.7" fill="#eba352"/><path d="m47.5 44.6h-17c-6 0-6-8.7 0-8.7h17.1c5.9 0 5.9 8.7-.1 8.7" fill="#ffdd67"/><path d="m48.9 43.1h-17.1c-4 0-5.3-4-3.9-6.5-3.2 2.1-2.3 8 2.6 8h17.1c1.9 0 3.2-.9 3.9-2.2-.7.4-1.6.7-2.6.7" fill="#eba352"/><path d="m45.9 53.3h-14.4c-5 0-5-8.7 0-8.7h14.4c5.1 0 5.1 8.7 0 8.7" fill="#ffdd67"/><path d="m47.1 51.8h-14.5c-3.4 0-4.5-4-3.3-6.6-2.7 2.1-2 8 2.2 8h14.4c1.6 0 2.7-.9 3.3-2.2-.5.6-1.3.8-2.1.8" fill="#eba352"/><path d="m44.4 62h-9.3c-5.4 0-5.4-8.7 0-8.7h9.3c5.4 0 5.4 8.7 0 8.7" fill="#ffdd67"/><path d="m45.6 60.6h-9.3c-3.6 0-4.8-4-3.5-6.6-2.9 2.1-2.1 8 2.3 8h9.3c1.8 0 2.9-.9 3.5-2.2-.6.5-1.4.8-2.3.8" fill="#eba352"/></symbol><symbol viewBox="0 0 64 64" id="1f44e"><title>1f44e</title><path d="m31.8 36.9c0 0-4.4-.9-.8 6.6 2.6 5.4 2.3 11.7 0 15-3.8 5.3-11.1 3.6-10.3.5 2.6-10.5-3.3-13.7-6.3-20.3-3.1-6.7-2.8-16.3-1.4-24.8.9-5.3 3.2-11.9 11.5-11.9h11.5l-4.2 34.9" fill="#ffdd67"/><path d="m25.8 3.5c-8.3 0-10.1 6.6-11 11.9-1.4 8.5-1.6 15.3 1.1 22.2 3 7.5 6.1 7.7 6.1 22.5 0 .7.4 1.2.8 1.6-1.4-.5-2.2-1.3-2.2-2.5 0-11.1-3.1-13.8-6.1-20.5-3.2-6.7-2.9-16.3-1.5-24.8.9-5.3 3.2-11.9 11.5-11.9h11.5v1.5h-10.2" fill="#eba352"/><path d="m46 28.2h-14.2c-5 0-5 8.7 0 8.7h14.2c5 0 5-8.7 0-8.7" fill="#ffdd67"/><path d="m47.1 29.6h-14.2c-3.4 0-4.4 4-3.3 6.5-2.7-2.1-1.9-8 2.1-8h14.3c1.6 0 2.7.9 3.3 2.2-.6-.4-1.3-.7-2.2-.7" fill="#eba352"/><path d="m47.5 19.4h-17c-6 0-6 8.7 0 8.7h17.1c5.9 0 5.9-8.7-.1-8.7" fill="#ffdd67"/><path d="m48.9 20.9h-17.1c-4 0-5.3 4-3.9 6.5-3.2-2.1-2.3-8 2.6-8h17.1c1.9 0 3.2.9 3.9 2.2-.7-.4-1.6-.7-2.6-.7" fill="#eba352"/><path d="m45.9 10.7h-14.4c-5 0-5 8.7 0 8.7h14.4c5.1 0 5.1-8.7 0-8.7" fill="#ffdd67"/><path d="m47.1 12.2h-14.5c-3.4 0-4.5 4-3.3 6.6-2.7-2.1-2-8 2.2-8h14.4c1.6 0 2.7.9 3.3 2.2-.5-.6-1.3-.8-2.1-.8" fill="#eba352"/><path d="m44.4 2h-9.3c-5.4 0-5.4 8.7 0 8.7h9.3c5.4 0 5.4-8.7 0-8.7" fill="#ffdd67"/><path d="m45.6 3.4h-9.3c-3.6 0-4.8 4-3.5 6.6-2.9-2.1-2.1-8 2.3-8h9.3c1.8 0 2.9.9 3.5 2.2-.6-.5-1.4-.8-2.3-.8" fill="#eba352"/></symbol><symbol viewBox="0 0 64 64" id="1f601"><title>1f601</title><circle fill="#ffdd67" cx="32" cy="32" r="30"/><path fill="#fff" d="m49.647 36.746c0 6.461-5.862 14-17.647 14-11.79 0-17.646-7.539-17.646-14 0 0 5.856 0 17.646 0 11.785 0 17.647 0 17.647 0"/><g fill="#664e27"><path d="m31.5 37.11h1v13.209h-1z"/><path d="m22.28 37.11h1v12.258h-1z"/><path d="m40.721 37.11h1v12.258h-1z"/><path d="m32 51.746c-12.18 0-18.75-7.729-18.75-15v-1h37.5v1c0 7.272-6.572 15-18.75 15m-16.496-14c.577 5.99 6.317 12 16.496 12s15.917-6.01 16.494-12h-32.99"/><path d="m27.7 23.683c-4.757-5.141-13.827-2.711-15.375 4.12-.091.416.546.807 1.268 1.061 3.147-4.229 8.697-5.717 13.537-3.628.498-.581.854-1.238.57-1.553"/><path d="m51.675 27.802c-1.549-6.831-10.618-9.261-15.374-4.121-.287.315.07.974.568 1.553 4.841-2.089 10.389-.603 13.536 3.626.722-.252 1.36-.642 1.27-1.058"/></g></symbol><symbol viewBox="0 0 64 64" id="1f610"><title>1f610</title><circle fill="#ffdd67" cx="32" cy="32" r="30"/><g fill="#664e27"><path d="m38.34 45.999h-12.69c-.873 0-.873-3 0-3h12.689c.876 0 .876 3 .001 3"/><circle cx="20.5" cy="27.592" r="4.5"/><circle cx="43.5" cy="27.592" r="4.5"/></g></symbol><symbol viewBox="0 0 64 64" id="1f625"><title>1f625</title><path fill="#ffdd67" d="M2,32c0,16.572,13.428,30,30,30s30-13.428,30-30S48.572,2,32,2S2,15.428,2,32z"/><g fill="#664e27"><path d="m15.318 52c1.801-1.061 3.541-1.701 5.322-2.127 1.775-.428 3.566-.609 5.361-.613 1.799.008 3.588.189 5.361.615 1.781.428 3.52 1.068 5.322 2.125-.771-1.979-2.484-3.533-4.396-4.527-1.932-1-4.119-1.486-6.287-1.484-2.166.004-4.354.486-6.283 1.488-1.909.996-3.624 2.548-4.4 4.523"/><circle cx="37.498" cy="36" r="4.5"/><circle cx="14.498" cy="36" r="4.5"/></g><g fill="#917524"><path d="m19.578 20.906c-3.236 2.732-7.523 3.881-11.693 3.133-.578-.113-1.088 2.02-.385 2.156 4.809.863 9.756-.461 13.492-3.615.541-.469-.971-2.06-1.414-1.674"/><path d="m44.11 23.887c-4.168.748-8.455-.4-11.691-3.133-.443-.389-1.955 1.205-1.412 1.674 3.732 3.152 8.68 4.479 13.492 3.615.703-.135.191-2.27-.389-2.156"/></g><path fill="#65b1ef" d="m44.688 38.605c0 8.576 11.656 8.578 11.654 0 0-6.264-5.826-12.375-5.826-12.375s-5.828 6.114-5.828 12.375"/></symbol><symbol viewBox="0 0 64 64" id="1f641"><title>1f641</title><circle fill="#ffdd67" cx="32" cy="32" r="30"/><g fill="#664e27"><path d="m42.684 47c-1.801-1.061-3.541-1.701-5.322-2.127-1.775-.428-3.566-.609-5.361-.613-1.799.008-3.588.189-5.361.615-1.781.428-3.52 1.068-5.322 2.125.771-1.979 2.484-3.533 4.396-4.527 1.932-1 4.119-1.486 6.287-1.484 2.166.004 4.354.486 6.283 1.488 1.909.996 3.624 2.548 4.4 4.523"/><circle cx="20.5" cy="26.592" r="4.5"/><circle cx="43.5" cy="26.592" r="4.5"/></g></symbol><symbol viewBox="0 0 64 64" id="1f642"><title>1f642</title><circle fill="#ffdd67" cx="32" cy="32" r="30"/><g fill="#664e27"><path d="m17.316 40.949c2.475 1.455 4.865 2.338 7.314 2.924 2.439.586 4.9.836 7.369.84 2.471-.01 4.93-.26 7.367-.846 2.449-.586 4.838-1.467 7.316-2.918-1.061 2.717-3.416 4.854-6.04 6.221-2.654 1.379-5.662 2.043-8.641 2.041-2.979-.004-5.984-.668-8.637-2.047-2.625-1.367-4.98-3.502-6.05-6.215"/><circle cx="20.502" cy="26.592" r="4.5"/><circle cx="43.502" cy="26.592" r="4.5"/></g></symbol><symbol viewBox="0 0 64 64" id="1f64d"><title>1f64d</title><circle fill="#cccccc" cx="32" cy="32" r="30"/><g fill="#664e27"><path d="m17.316 40.949c2.475 1.455 4.865 2.338 7.314 2.924 2.439.586 4.9.836 7.369.84 2.471-.01 4.93-.26 7.367-.846 2.449-.586 4.838-1.467 7.316-2.918-1.061 2.717-3.416 4.854-6.04 6.221-2.654 1.379-5.662 2.043-8.641 2.041-2.979-.004-5.984-.668-8.637-2.047-2.625-1.367-4.98-3.502-6.05-6.215"/><circle cx="20.502" cy="26.592" r="4.5"/><circle cx="43.502" cy="26.592" r="4.5"/></g></symbol></svg>