<svg xmlns="http://www.w3.org/2000/svg" width="49" height="36" viewBox="0 0 49 36">
    <path fill="#FEFEFE" fill-rule="evenodd" d="M0 25.245h14.816V36H1.998A2 2 0 0 1 0 34.002v-8.757zm17.07 0h14.815V36H17.069V25.245zm17.068 0h14.816v8.757A2.004 2.004 0 0 1 46.956 36H34.138V25.245zM0 12.623h14.816v10.754H0V12.623zm17.07 0h14.815v10.754H17.069V12.623zm17.068 0h14.816v10.754H34.138V12.623zM0 1.998C0 .894.905 0 1.998 0h12.818v10.755H0V1.998zM17.07 0h14.815v10.755H17.069V0zm17.068 0h12.818a2 2 0 0 1 1.998 1.998v8.757H34.138V0z" opacity=".3"/>
</svg>
