<?xml version="1.0" encoding="UTF-8" standalone="no"?>
<svg width="60px" height="33px" viewBox="0 0 60 33" version="1.1" xmlns="http://www.w3.org/2000/svg" xmlns:xlink="http://www.w3.org/1999/xlink">
    <!-- Generator: Sketch 3.6.1 (26313) - http://www.bohemiancoding.com/sketch -->
    <title>FillInBlank</title>
    <desc>Created with Sketch.</desc>
    <defs></defs>
    <g id="StyleGuide" stroke="none" stroke-width="1" fill="none" fill-rule="evenodd">
        <g id="Style-Guide" transform="translate(-3509.000000, -1407.000000)">
            <g id="FillInBlank" transform="translate(3509.000000, 1407.000000)">
                <path d="M24.0789733,24 L19.8869733,24 C19.4176376,24 19.0309748,23.8906678 18.7269733,23.672 C18.4229717,23.4533322 18.2123072,23.173335 18.0949733,22.832 L16.7189733,18.768 L7.85497327,18.768 L6.47897327,22.832 C6.37230607,23.1306682 6.16430815,23.3999988 5.85497327,23.64 C5.54563839,23.8800012 5.16697551,24 4.71897327,24 L0.494973266,24 L9.51897327,0.688 L15.0549733,0.688 L24.0789733,24 Z M9.10297327,15.088 L15.4709733,15.088 L13.3269733,8.704 C13.1883059,8.29866464 13.0256409,7.82133608 12.8389733,7.272 C12.6523057,6.72266392 12.4683075,6.1280032 12.2869733,5.488 C12.1163057,6.13866992 11.9403075,6.74133056 11.7589733,7.296 C11.577639,7.85066944 11.4069741,8.33066464 11.2469733,8.736 L9.10297327,15.088 Z" id="A" fill="#76B072"></path>
                <path d="M28.21875,0.3125 L35.78125,0.3125 L35.78125,3.015625 L33.53125,3.015625 L33.53125,21.3125 L35.78125,21.3125 L35.78125,24 L28.21875,24 L28.21875,21.3125 L30.46875,21.3125 L30.46875,3.015625 L28.21875,3.015625 L28.21875,0.3125 Z" id="I" fill="#FFFFFF"></path>
                <rect id="Rectangle-194-Copy-37" fill="#FFFFFF" x="0" y="30" width="59.7436233" height="2.50143791"></rect>
            </g>
        </g>
    </g>
</svg>
