<?xml version="1.0" encoding="UTF-8" standalone="no"?>
<svg width="20px" height="20px" viewBox="0 0 20 20" version="1.1" xmlns="http://www.w3.org/2000/svg" xmlns:xlink="http://www.w3.org/1999/xlink">
    <!-- Generator: Sketch 3.6.1 (26313) - http://www.bohemiancoding.com/sketch -->
    <title>Verified_Dark</title>
    <desc>Created with Sketch.</desc>
    <defs></defs>
    <g id="StyleGuide" stroke="none" stroke-width="1" fill="none" fill-rule="evenodd">
        <g id="Style-Guide" transform="translate(-3745.000000, -1578.000000)" fill="#4B9741">
            <g id="Verified_Dark" transform="translate(3745.000000, 1578.000000)">
                <path d="M5.9,8.1 L4.5,9.5 L9,14 L19,4 L17.6,2.6 L9,11.2 L5.9,8.1 L5.9,8.1 Z M18,10 C18,14.4 14.4,18 10,18 C5.6,18 2,14.4 2,10 C2,5.6 5.6,2 10,2 C10.8,2 11.5,2.1 12.2,2.3 L13.8,0.7 C12.6,0.3 11.3,0 10,0 C4.5,0 0,4.5 0,10 C0,15.5 4.5,20 10,20 C15.5,20 20,15.5 20,10 L18,10 L18,10 Z" id="Shape"></path>
            </g>
        </g>
    </g>
</svg>