<?xml version="1.0" encoding="UTF-8" standalone="no"?>
<svg width="18px" height="18px" viewBox="0 0 18 18" version="1.1" xmlns="http://www.w3.org/2000/svg" xmlns:xlink="http://www.w3.org/1999/xlink">
    <!-- Generator: Sketch 3.6.1 (26313) - http://www.bohemiancoding.com/sketch -->
    <title>Content_Light</title>
    <desc>Created with Sketch.</desc>
    <defs></defs>
    <g id="StyleGuide" stroke="none" stroke-width="1" fill="none" fill-rule="evenodd" opacity="0.8">
        <g id="Style-Guide" transform="translate(-3773.000000, -1278.000000)" fill="#E3E6EB">
            <g id="Content_Light" transform="translate(3773.000000, 1278.000000)">
                <path d="M16,0 L2,0 C0.9,0 0,0.9 0,2 L0,16 C0,17.1 0.9,18 2,18 L16,18 C17.1,18 18,17.1 18,16 L18,2 C18,0.9 17.1,0 16,0 L16,0 Z M15,15 L9,15 L9,9.2 C8.3,9.8 7.5,10.2 6.5,10.2 C4.5,10.2 2.8,8.5 2.8,6.5 C2.8,4.5 4.5,2.8 6.5,2.8 C8.5,2.8 10.2,4.5 10.2,6.5 C10.2,7.5 9.8,8.3 9.2,9 L15,9 L15,15 L15,15 Z" id="Shape"></path>
            </g>
        </g>
    </g>
</svg>