<?xml version="1.0" encoding="utf-8"?>
<!-- Generator: Adobe Illustrator 19.2.0, SVG Export Plug-In . SVG Version: 6.00 Build 0)  -->
<svg version="1.1" id="Layer_1" xmlns="http://www.w3.org/2000/svg" xmlns:xlink="http://www.w3.org/1999/xlink" x="0px" y="0px"
	 viewBox="0 0 693 732" style="enable-background:new 0 0 693 732;" xml:space="preserve">
<style type="text/css">
	.st0{fill:none;}
</style>
<path d="M1264.1,667.5l11.5-6.7C1271.7,663.3,1267.8,665.5,1264.1,667.5z"/>
<path class="st0" d="M-213.5,907l-0.5-0.6"/>
<path d="M531.2,186.2c-53-41.1-123.4-63.7-198.2-63.7s-145.2,22.6-198.3,63.7c-53.6,41.5-83.1,96.9-83.1,155.9 c0,48.1,19.4,93.6,56.2,131.8l-15.6,91c-0.9,5.3,0.6,10.7,4,14.8c3.5,4.1,8.6,6.5,13.9,6.5c2.5,0,5-0.5,7.3-1.5l98.4-42.8 c36.8,13.1,76.1,19.8,117,19.8c1.3,0,2.6,0,3.9,0c2.1,0,4.2,0,6.3-0.1c10.2-0.3,20.3-1,30.3-2.1c1.1-0.1,2.2-0.2,3.3-0.4 c1-0.1,2-0.2,3-0.4c1.3-0.2,2.6-0.3,4-0.5c0.7-0.1,1.4-0.2,2.1-0.3c1.4-0.2,2.7-0.4,4.1-0.6c1-0.2,2-0.3,3-0.5 c2.4-0.4,4.7-0.8,7-1.3c1-0.2,2-0.4,2.9-0.6c1.1-0.2,2.1-0.4,3.2-0.7c0.9-0.2,1.7-0.3,2.6-0.5c0.9-0.2,1.7-0.4,2.6-0.6 c2.2-0.5,4.4-1,6.5-1.5c0.8-0.2,1.6-0.4,2.4-0.6c5.2-1.3,10.4-2.8,15.5-4.3c0.7-0.2,1.3-0.4,2-0.6c1-0.3,2-0.7,3.1-1 c12.5-4,24.7-8.8,36.4-14.3c0.9-0.4,1.7-0.8,2.6-1.2c4-1.9,8-3.9,11.9-6c0.8-0.4,1.6-0.9,2.4-1.3c0.9-0.5,1.9-1,2.8-1.6 c0.9-0.5,1.9-1,2.8-1.6c0.9-0.5,1.8-1.1,2.8-1.6c1-0.6,1.9-1.1,2.9-1.7c0.9-0.5,1.7-1.1,2.6-1.6c0.9-0.6,1.8-1.1,2.7-1.7 c0,0,0,0,0,0c0.9-0.6,1.8-1.1,2.6-1.7c0.7-0.5,1.4-0.9,2.1-1.4c2.1-1.4,4.1-2.8,6.1-4.2c0.7-0.5,1.4-1,2.1-1.5 c0.5-0.4,1.1-0.8,1.7-1.2c0.6-0.4,1.1-0.8,1.7-1.2c0.1-0.1,0.2-0.1,0.2-0.2c1.4-1,2.8-2.1,4.1-3.1c1.2-1,2.5-2,3.7-2.9 c0.3-0.3,0.7-0.5,1-0.8c0.8-0.6,1.6-1.3,2.3-1.9c0.8-0.6,1.5-1.3,2.3-1.9c0.8-0.6,1.5-1.3,2.3-1.9c0.4-0.4,0.9-0.8,1.3-1.1 c0.5-0.5,1-0.9,1.5-1.4c0.8-0.7,1.5-1.3,2.2-2c0.6-0.5,1.2-1.1,1.7-1.6c0.5-0.5,1-1,1.6-1.5c0.8-0.8,1.7-1.6,2.5-2.4 c0.5-0.5,1.1-1.1,1.6-1.6c1.5-1.5,3-3,4.4-4.5c0.7-0.7,1.3-1.4,2-2.1c0.6-0.6,1.1-1.2,1.7-1.9c0.7-0.8,1.4-1.6,2.1-2.4 c0.6-0.7,1.2-1.4,1.9-2.1c0.5-0.5,0.9-1.1,1.4-1.6c0.5-0.5,0.9-1.1,1.3-1.6c1.1-1.3,2.2-2.7,3.2-4c0.4-0.5,0.8-1,1.2-1.5 c1.1-1.5,2.2-2.9,3.3-4.4c1.1-1.5,2.2-3,3.2-4.6c0.7-1,1.4-2,2.1-3.1c0.4-0.6,0.8-1.2,1.2-1.8c0.5-0.8,1-1.6,1.5-2.4 c0.5-0.8,1-1.6,1.5-2.4c1.1-1.8,2.1-3.5,3.1-5.3c0.4-0.7,0.8-1.4,1.2-2.1c0.4-0.7,0.8-1.5,1.2-2.2c0.1-0.2,0.2-0.3,0.3-0.5 c0.4-0.7,0.8-1.4,1.1-2.1c1.3-2.6,2.7-5.3,3.9-8c0.2-0.6,0.5-1.1,0.8-1.7c0.5-1.1,1-2.3,1.5-3.4c0.2-0.5,0.4-1,0.7-1.5 c1-2.3,1.9-4.7,2.7-7c0.2-0.6,0.4-1.2,0.7-1.8c0.9-2.5,1.7-5,2.5-7.5c0.5-1.7,1-3.5,1.5-5.2c0.2-0.9,0.5-1.8,0.7-2.6 c0.2-0.9,0.4-1.8,0.7-2.7c0.2-0.9,0.4-1.8,0.6-2.7c0.2-0.7,0.3-1.4,0.5-2.2c0.1-0.6,0.3-1.3,0.4-1.9c0.1-0.6,0.2-1.1,0.3-1.7 c0.1-0.6,0.2-1.2,0.3-1.8c0.1-0.7,0.2-1.4,0.4-2.2c0.1-0.8,0.3-1.6,0.4-2.4c0-0.1,0-0.2,0-0.3c0.1-0.8,0.2-1.6,0.3-2.5 c0.1-0.7,0.2-1.4,0.3-2.1c0-0.3,0.1-0.7,0.1-1c0.1-0.6,0.1-1.3,0.2-1.9c0.1-0.7,0.2-1.4,0.2-2c0-0.5,0.1-0.9,0.1-1.4 c0.1-0.7,0.1-1.4,0.2-2c0.1-0.9,0.1-1.8,0.2-2.6c0-0.9,0.1-1.8,0.1-2.6c0.1-2.5,0.2-5,0.2-7.4C614.3,283.1,584.8,227.8,531.2,186.2z M458.4,295.7h-43.8l-12.8,80.9H434c9.3,0,16.8,7.5,16.8,16.8s-7.5,16.8-16.8,16.8h-37.5l-10.9,69.1c-1.3,8.3-8.4,14.2-16.6,14.2 c-0.9,0-1.8-0.1-2.6-0.2c-9.1-1.4-15.4-10-14-19.2l10.1-63.9h-78l-10.9,69.1c-1.3,8.3-8.5,14.2-16.6,14.2c-0.9,0-1.8-0.1-2.6-0.2 c-9.1-1.4-15.4-10-14-19.2l10.1-63.9h-43c-9.3,0-16.8-7.5-16.8-16.8s7.5-16.8,16.8-16.8h48.3l12.8-80.9h-50.1 c-9.3,0-16.8-7.5-16.8-16.8c0-9.3,7.5-16.8,16.8-16.8h55.4l11-70.1c1.4-9.2,10-15.4,19.2-14c9.2,1.4,15.4,10,14,19.2l-10.2,64.8h78 l11-70.1c1.4-9.2,10-15.4,19.2-14c9.1,1.4,15.4,10,14,19.2l-10.2,64.8h38.5c9.3,0,16.8,7.5,16.8,16.8 C475.1,288.2,467.6,295.7,458.4,295.7z"/>
<g>
	<g>
		<polygon points="380.5,295.7 367.8,376.5 289.8,376.5 302.5,295.7 		"/>
	</g>
</g>
</svg>
