<svg xmlns="http://www.w3.org/2000/svg" width="20" height="20" viewBox="0 0 20 20">
    <path fill="#727B81" fill-rule="evenodd" d="M9.905 20C4.435 20 0 15.523 0 10S4.435 0 9.905 0s9.905 4.477 9.905 10-4.435 10-9.905 10zm4.512-12c-.613 0-1.131.373-1.363.901h-1.739A1.489 1.489 0 0 0 9.952 8c-.613 0-1.13.373-1.363.901H6.851A1.489 1.489 0 0 0 5.488 8C4.667 8 4 8.673 4 9.502c0 .83.667 1.503 1.488 1.503.613 0 1.131-.373 1.363-.902H8.59c.232.53.75.902 1.363.902s1.131-.373 1.363-.902h1.739c.232.53.75.902 1.363.902.821 0 1.488-.673 1.488-1.503 0-.829-.667-1.502-1.488-1.502z"/>
</svg>
