<?xml version="1.0" encoding="UTF-8" standalone="no"?>
<svg width="73px" height="40px" viewBox="0 0 73 40" version="1.1" xmlns="http://www.w3.org/2000/svg" xmlns:xlink="http://www.w3.org/1999/xlink">
    <!-- Generator: Sketch 3.6.1 (26313) - http://www.bohemiancoding.com/sketch -->
    <title>MultipleChoice</title>
    <desc>Created with Sketch.</desc>
    <defs></defs>
    <g id="StyleGuide" stroke="none" stroke-width="1" fill="none" fill-rule="evenodd">
        <g id="Style-Guide" transform="translate(-3505.000000, -645.000000)">
            <g id="Group-12" transform="translate(3448.000000, 623.000000)">
                <g id="MultipleChoice" transform="translate(57.000000, 22.000000)">
                    <path d="M5.328,27.668 C5.37600024,27.668 5.41949981,27.6874998 5.4585,27.7265 L5.8005,28.1 C5.53649868,28.4060015 5.21625188,28.6444991 4.83975,28.8155 C4.46324812,28.9865009 4.00950266,29.072 3.4785,29.072 C3.01349768,29.072 2.59200189,28.9917508 2.214,28.83125 C1.83599811,28.6707492 1.51350134,28.4457514 1.2465,28.15625 C0.979498665,27.8667486 0.772500735,27.519502 0.6255,27.1145 C0.478499265,26.709498 0.405,26.2640024 0.405,25.778 C0.405,25.2919976 0.483749213,24.846502 0.64125,24.4415 C0.798750788,24.036498 1.01999858,23.6885015 1.305,23.3975 C1.59000143,23.1064985 1.93124801,22.8807508 2.32875,22.72025 C2.72625199,22.5597492 3.1649976,22.4795 3.645,22.4795 C4.11900237,22.4795 4.52774828,22.5529993 4.87125,22.7 C5.21475172,22.8470007 5.51999867,23.0464987 5.787,23.2985 L5.5035,23.699 C5.4824999,23.7290002 5.45850014,23.7537499 5.4315,23.77325 C5.40449987,23.7927501 5.36550026,23.8025 5.3145,23.8025 C5.27549981,23.8025 5.23425022,23.7882501 5.19075,23.75975 C5.14724978,23.7312499 5.0955003,23.6960002 5.0355,23.654 C4.9754997,23.6119998 4.90500041,23.5670002 4.824,23.519 C4.7429996,23.4709998 4.64700056,23.4260002 4.536,23.384 C4.42499945,23.3419998 4.29600074,23.3067501 4.149,23.27825 C4.00199927,23.2497499 3.83250096,23.2355 3.6405,23.2355 C3.29549828,23.2355 2.97975143,23.2947494 2.69325,23.41325 C2.40674857,23.5317506 2.16000104,23.7004989 1.953,23.9195 C1.74599897,24.1385011 1.58475058,24.4054984 1.46925,24.7205 C1.35374942,25.0355016 1.296,25.3879981 1.296,25.778 C1.296,26.180002 1.35374942,26.5384984 1.46925,26.8535 C1.58475058,27.1685016 1.742249,27.4347489 1.94175,27.65225 C2.141251,27.8697511 2.37749864,28.0354994 2.6505,28.1495 C2.92350137,28.2635006 3.21749843,28.3205 3.5325,28.3205 C3.72450096,28.3205 3.89699924,28.3092501 4.05,28.28675 C4.20300077,28.2642499 4.34474935,28.2290002 4.47525,28.181 C4.60575065,28.1329998 4.72724944,28.0722504 4.83975,27.99875 C4.95225056,27.9252496 5.06549943,27.8375005 5.1795,27.7355 C5.23050026,27.6904998 5.27999976,27.668 5.328,27.668 L5.328,27.668 Z" id="Path" fill="#FCFEFF"></path>
                    <path d="M6.0885,7 L5.4135,7 C5.33549961,7 5.27250024,6.9805002 5.2245,6.9415 C5.17649976,6.90249981 5.14050012,6.8530003 5.1165,6.793 L4.5135,5.236 L1.62,5.236 L1.017,6.793 C0.995999895,6.84700027 0.960000255,6.89499979 0.909,6.937 C0.857999745,6.97900021 0.795000375,7 0.72,7 L0.045,7 L2.6235,0.5515 L3.51,0.5515 L6.0885,7 Z M1.863,4.606 L4.2705,4.606 L3.258,1.9825 C3.19199967,1.82049919 3.12750031,1.61800122 3.0645,1.375 C3.03149983,1.49800062 2.99925016,1.61124948 2.96775,1.71475 C2.93624984,1.81825052 2.90550015,1.90899961 2.8755,1.987 L1.863,4.606 Z M0.783,18 L0.783,11.5515 L2.8395,11.5515 C3.23550198,11.5515 3.57674857,11.5904996 3.86325,11.6685 C4.14975143,11.7465004 4.38524908,11.8574993 4.56975,12.0015 C4.75425092,12.1455007 4.89074956,12.321749 4.97925,12.53025 C5.06775044,12.738751 5.112,12.9734987 5.112,13.2345 C5.112,13.3935008 5.08725025,13.5464993 5.03775,13.6935 C4.98824975,13.8405007 4.9132505,13.9769994 4.81275,14.103 C4.7122495,14.2290006 4.58625076,14.3414995 4.43475,14.4405 C4.28324924,14.5395005 4.10550102,14.6204997 3.9015,14.6835 C4.37250235,14.7765005 4.7279988,14.9459988 4.968,15.192 C5.2080012,15.4380012 5.328,15.761998 5.328,16.164 C5.328,16.4370014 5.2777505,16.6859989 5.17725,16.911 C5.0767495,17.1360011 4.92975097,17.3294992 4.73625,17.4915 C4.54274903,17.6535008 4.3057514,17.7787496 4.02525,17.86725 C3.7447486,17.9557504 3.4245018,18 3.0645,18 L0.783,18 Z M1.656,15.0615 L1.656,17.307 L3.051,17.307 C3.30000125,17.307 3.51374911,17.2785003 3.69225,17.2215 C3.87075089,17.1644997 4.01774942,17.0842505 4.13325,16.98075 C4.24875058,16.8772495 4.33349973,16.7542507 4.3875,16.61175 C4.44150027,16.4692493 4.4685,16.3125009 4.4685,16.1415 C4.4685,15.8084983 4.35075118,15.545251 4.11525,15.35175 C3.87974882,15.158249 3.52350239,15.0615 3.0465,15.0615 L1.656,15.0615 Z M1.656,14.4405 L2.808,14.4405 C3.05400123,14.4405 3.2669991,14.4135003 3.447,14.3595 C3.6270009,14.3054997 3.77624941,14.2305005 3.89475,14.1345 C4.01325059,14.0384995 4.10099972,13.9222507 4.158,13.78575 C4.21500029,13.6492493 4.2435,13.5000008 4.2435,13.338 C4.2435,12.9599981 4.12950114,12.6825009 3.9015,12.5055 C3.67349886,12.3284991 3.3195024,12.24 2.8395,12.24 L1.656,12.24 L1.656,14.4405 Z M6.372,36.778 C6.372,37.2610024 6.29550076,37.700498 6.1425,38.0965 C5.98949923,38.492502 5.77350139,38.8314986 5.4945,39.1135 C5.2154986,39.3955014 4.88100195,39.6137492 4.491,39.76825 C4.10099805,39.9227508 3.66900237,40 3.195,40 L0.783,40 L0.783,33.5515 L3.195,33.5515 C3.66900237,33.5515 4.10099805,33.6287492 4.491,33.78325 C4.88100195,33.9377508 5.2154986,34.1567486 5.4945,34.44025 C5.77350139,34.7237514 5.98949923,35.063498 6.1425,35.4595 C6.29550076,35.855502 6.372,36.2949976 6.372,36.778 L6.372,36.778 Z M5.4765,36.778 C5.4765,36.381998 5.42250054,36.0280016 5.3145,35.716 C5.20649946,35.4039984 5.05350099,35.1400011 4.8555,34.924 C4.65749901,34.7079989 4.41750141,34.5430006 4.1355,34.429 C3.85349859,34.3149994 3.54000173,34.258 3.195,34.258 L1.6605,34.258 L1.6605,39.2935 L3.195,39.2935 C3.54000173,39.2935 3.85349859,39.2365006 4.1355,39.1225 C4.41750141,39.0084994 4.65749901,38.8442511 4.8555,38.62975 C5.05350099,38.4152489 5.20649946,38.1520016 5.3145,37.84 C5.42250054,37.5279984 5.4765,37.174002 5.4765,36.778 L5.4765,36.778 Z" id="A" fill="#76B072"></path>
                    <g id="Group-3" transform="translate(13.000000, 3.000000)">
                        <rect id="Rectangle-194-Copy-24" fill="#76B072"  x="0" y="0" width="59.7436233" height="2.50143791"></rect>
                        <rect id="Rectangle-194-Copy-25" fill="#76B072"  x="0" y="11" width="59.7436233" height="2.50143791"></rect>
                        <rect id="Rectangle-194-Copy-29" fill="#76B072"  x="0" y="33" width="59.7436233" height="2.50143791"></rect>
                        <rect id="Rectangle-194-Copy-33" fill="#FFFFFF" x="0" y="22" width="59.7436233" height="2.50143791"></rect>
                    </g>
                </g>
            </g>
        </g>
    </g>
</svg>
