<?xml version="1.0" encoding="UTF-8" standalone="no"?>
<svg width="23px" height="21px" viewBox="0 0 23 21" version="1.1" xmlns="http://www.w3.org/2000/svg" xmlns:xlink="http://www.w3.org/1999/xlink">
    <!-- Generator: Sketch 3.6.1 (26313) - http://www.bohemiancoding.com/sketch -->
    <title>Resource_Light</title>
    <desc>Created with Sketch.</desc>
    <defs></defs>
    <g id="StyleGuide" stroke="none" stroke-width="1" fill="none" fill-rule="evenodd" opacity="0.8">
        <g id="Style-Guide" transform="translate(-4132.000000, -648.000000)" fill="#DDDDDD">
            <g id="Resource_Light" transform="translate(4132.000000, 648.000000)">
                <g id="Page-1">
                    <path d="M22.9902148,10.6739026 C23.0050498,9.97841802 22.6568046,9.29726558 21.9801781,8.69204819 C21.9970246,8.60077528 22.0055736,8.511011 22.0055736,8.42124673 C22.0055736,7.54070194 21.288968,6.82459927 20.4081718,6.82459927 C20.0116501,6.82459927 19.6372551,6.9711891 19.346087,7.23419591 C18.8995285,7.0697538 18.402682,6.91511786 17.8640964,6.77255107 C18.7617391,3.47767417 18.4735883,1.15587218 17.0582294,0.374143531 C16.7434259,0.200146674 16.3873861,0.111891042 15.9996647,0.111891042 C14.7537768,0.111891042 13.1689471,1.05630173 11.5106967,2.78042954 C9.85294919,1.0517758 8.26837087,0.104850707 7.02223153,0.104850707 C6.63652174,0.104850707 6.28148769,0.192603457 5.96693557,0.365594552 C5.42105815,0.666066003 4.76630697,1.36280775 4.65994762,2.97655317 C4.08490309,3.22472499 3.69165008,3.80127816 3.69165008,4.44295443 C3.69165008,5.21135673 4.24155055,5.85781037 4.96921949,6.00691461 C5.00995285,6.19122053 5.05269775,6.37074908 5.09770561,6.54751179 C1.89711891,7.29253012 0.0530539549,8.60831849 0.0193609219,10.1858565 C-0.00880041907,11.5059193 1.24664222,12.7135883 3.5541121,13.5858355 C4.02782609,13.7656155 4.56364589,13.9343321 5.15075956,14.0894709 C5.08815086,14.3180304 5.03182818,14.541561 4.98103719,14.7583028 C4.24708224,14.9023782 3.69165008,15.5508434 3.69165008,16.326286 C3.69165008,16.9699738 4.07082242,17.5344578 4.64335254,17.7851441 C4.72884233,19.4597381 5.39314825,20.1783552 5.95109481,20.4868727 C6.26614982,20.6603667 6.62244107,20.7486223 7.00991095,20.7486223 C8.25579885,20.7486223 9.8406286,19.8042116 11.498879,18.0803353 C13.1563751,19.8084861 14.7409534,20.7554112 15.9875956,20.7554112 C16.3733054,20.7554112 16.7283394,20.6676585 17.0428916,20.4951702 C18.4227973,19.7358198 18.7343321,17.4929701 17.9136302,14.3122472 C21.1129597,13.5669775 22.9565217,12.2511891 22.9902148,10.6739026 L22.9902148,10.6739026 Z M16.4195705,19.3616763 C16.2986276,19.4285595 16.1532949,19.462001 15.9875956,19.462001 C15.102022,19.462001 13.7947826,18.6071032 12.3736406,17.1049974 C12.942902,16.4286223 13.5061289,15.675055 14.0522577,14.8591304 C14.9554322,14.8007962 15.825165,14.7022315 16.6448612,14.564945 C17.3778104,17.3685071 17.0542064,19.0124254 16.4195705,19.3616763 L16.4195705,19.3616763 Z M7.00991095,19.4549607 C6.84320587,19.4549607 6.69737035,19.4210162 6.57592457,19.3541331 C6.20957569,19.1519749 5.98604505,18.59956 5.93625982,17.7848926 C6.50149817,17.5326977 6.88645364,16.9619277 6.88645364,16.326286 C6.88645364,15.8128444 6.6455736,15.345165 6.24176008,15.0477108 C6.29154531,14.8342378 6.34786799,14.6124673 6.41072813,14.3841592 C7.19295966,14.5420639 8.0229649,14.6667784 8.88490309,14.7562913 C9.45039288,15.6114405 10.0344893,16.3992038 10.6261289,17.1034887 C9.2037297,18.6018229 7.89623887,19.4549607 7.00991095,19.4549607 L7.00991095,19.4549607 Z M6.59075956,1.49883709 C6.71145102,1.43220534 6.85653222,1.39851231 7.02223153,1.39851231 C7.90830801,1.39851231 9.21529597,2.25341016 10.6364379,3.75576742 C10.0681823,4.43063384 9.50520691,5.18445259 8.95807229,6.0018858 C8.0564065,6.05996857 7.18767941,6.15828182 6.36823468,6.29506548 C6.32020953,6.11000524 6.27495024,5.92167627 6.23170246,5.72756417 C6.63702462,5.43011001 6.88645364,4.95262441 6.88645364,4.44295443 C6.88645364,3.80479832 6.5153274,3.24584599 5.95310634,2.99138816 C6.01345207,2.21921425 6.23622839,1.69370351 6.59075956,1.49883709 L6.59075956,1.49883709 Z M15.9996647,1.4053012 C16.1656155,1.4053012 16.3117025,1.43949712 16.4331482,1.5063803 C17.087648,1.86770037 17.4029544,3.57095862 16.6056365,6.47786276 C15.8196333,6.31920377 14.9873651,6.19373494 14.124924,6.10422211 C13.5594343,5.24957569 12.9753379,4.46181247 12.3839497,3.75702462 C13.8060974,2.25843897 15.1138397,1.4053012 15.9996647,1.4053012 L15.9996647,1.4053012 Z M7.57866946,8.26208486 C7.46803562,8.46248298 7.35765322,8.66941854 7.24324777,8.8899319 C7.05944474,8.43507596 6.89324254,7.98675746 6.74640126,7.54874804 C7.1801362,7.47935045 7.62920901,7.42126768 8.08934521,7.3742483 C7.91157674,7.6719539 7.74235726,7.9658879 7.57866946,8.26208486 L7.57866946,8.26208486 Z M6.79467784,13.1425458 C6.92768989,12.7601048 7.07654269,12.3663489 7.24048193,11.964044 C7.35388161,12.1840545 7.46401257,12.39099 7.57489785,12.5928968 C7.71017287,12.8383028 7.85198533,13.0872289 8.00360398,13.3439497 C7.58420115,13.2846097 7.18038764,13.2172237 6.79467784,13.1425458 L6.79467784,13.1425458 Z M7.91886852,10.4277423 C8.17408067,9.89468832 8.44010477,9.37722368 8.71090623,8.8874175 C9.00735464,8.35008905 9.33422734,7.80320587 9.68398114,7.25908853 C10.3173599,7.23193295 10.9394238,7.22464117 11.5728025,7.23897328 C12.168968,7.25179675 12.7751912,7.28322682 13.3763855,7.33250917 C13.7097957,7.85726558 14.0208277,8.3807648 14.3014353,8.89093766 C14.5800314,9.3978418 14.8460555,9.91580932 15.0932216,10.4330225 C14.846307,10.9484756 14.5795285,11.4659403 14.2991723,11.9735987 C14.0039811,12.5081613 13.6771084,13.055296 13.3255946,13.6021792 C12.7000105,13.6290833 12.0739235,13.6358722 11.4370246,13.6215401 C10.841362,13.608968 10.2353903,13.577538 9.63268727,13.5282556 C9.29952855,13.0034992 8.98874804,12.48 8.70814039,11.9695757 C8.43733892,11.4767522 8.17206915,10.9590361 7.91886852,10.4277423 L7.91886852,10.4277423 Z M14.9204819,13.4867679 C15.0982504,13.1893138 15.2674699,12.8951283 15.4309062,12.5989314 C15.5450602,12.3924987 15.6584599,12.1810372 15.7713567,11.9655526 C15.9561655,12.4219172 16.1231221,12.8717444 16.2704662,13.3115139 C15.8329597,13.3814144 15.3818753,13.4397486 14.9204819,13.4867679 L14.9204819,13.4867679 Z M16.2191723,7.71872184 C16.0851545,8.1066946 15.9363017,8.50195914 15.7733683,8.90149817 C15.6619801,8.68701938 15.5488318,8.47530644 15.4346778,8.26761655 C15.2988999,8.02095338 15.1565846,7.77202724 15.0062232,7.51656365 C15.4261289,7.57615506 15.831451,7.64354112 16.2191723,7.71872184 L16.2191723,7.71872184 Z M11.600461,5.94581456 C11.3741645,5.94103719 11.1498795,5.93877423 10.9268518,5.93877423 C10.8119434,5.93877423 10.6970351,5.93952855 10.5823782,5.94078575 C10.8838554,5.52716606 11.1938816,5.12863279 11.5094395,4.74895757 C11.8330435,5.13969618 12.1508643,5.55055003 12.4606391,5.97825039 C12.158659,5.96240964 11.8735254,5.95184914 11.600461,5.94581456 L11.600461,5.94581456 Z M5.46581456,7.79390257 C5.74793085,8.65961236 6.09215296,9.54317444 6.4911891,10.4267365 C6.12081718,11.2429125 5.79771608,12.0563227 5.52817182,12.8516291 C4.96645364,12.7045364 4.45728654,12.5451231 4.01148245,12.3761551 C2.33185961,11.7407648 1.29768465,10.9120168 1.31277108,10.213012 C1.33188057,9.30078575 2.94990047,8.3646726 5.46581456,7.79390257 L5.46581456,7.79390257 Z M11.409869,14.9146988 C11.7513253,14.9219906 12.0897643,14.9234992 12.4277004,14.919979 C12.1259717,15.3338502 11.8159455,15.732132 11.5006391,16.1118072 C11.1765322,15.7203143 10.8584599,15.3097119 10.5491881,14.882263 C10.8504138,14.8983552 11.1332844,14.9089157 11.409869,14.9146988 L11.409869,14.9146988 Z M17.5490414,13.0671137 C17.2696909,12.2109586 16.9244631,11.3273965 16.5203981,10.4337768 C16.8940388,9.61131482 17.2178942,8.7981561 17.484924,8.00988999 C17.964924,8.13535883 18.4087166,8.27138816 18.8110215,8.41546359 L18.8110215,8.42124673 C18.8110215,9.30229439 19.5273756,10.0191514 20.4081718,10.0191514 C20.709649,10.0191514 20.9990571,9.93567313 21.2492404,9.77952855 C21.4896176,10.0211629 21.7035935,10.3274175 21.6968046,10.646747 C21.6776951,11.5602305 20.0616867,12.4968465 17.5490414,13.0671137 L17.5490414,13.0671137 Z" id="Fill-1"></path>
                </g>
            </g>
        </g>
    </g>
</svg>