<?xml version="1.0" encoding="UTF-8" standalone="no"?>
<svg width="85px" height="32px" viewBox="0 0 85 32" version="1.1" xmlns="http://www.w3.org/2000/svg" xmlns:xlink="http://www.w3.org/1999/xlink">
    <!-- Generator: Sketch 3.6.1 (26313) - http://www.bohemiancoding.com/sketch -->
    <title>MultipleAnswer</title>
    <desc>Created with Sketch.</desc>
    <defs></defs>
    <g id="StyleGuide" stroke="none" stroke-width="1" fill="none" fill-rule="evenodd">
        <g id="Style-Guide" transform="translate(-3502.000000, -1155.000000)">
            <g id="Group-10" transform="translate(3447.000000, 1128.000000)">
                <g id="MultipleAnswer" transform="translate(55.000000, 27.000000)">
                    <g id="Group-3" transform="translate(0.000000, 4.000000)">
                        <rect id="Rectangle-194-Copy-24" fill="#B8BFC4" x="0" y="0" width="50.7820798" height="2.50143791"></rect>
                        <rect id="Rectangle-194-Copy-25" fill="#B8BFC4" x="0" y="11" width="50.7820798" height="2.50143791"></rect>
                        <rect id="Rectangle-194-Copy-33" fill="#76B072" x="0" y="22" width="50.7820798" height="2.50143791"></rect>
                    </g>
                    <path d="M60.5,6.625 L57.875,4 L57,4.875 L60.5,8.375 L68,0.875 L67.125,0 L60.5,6.625 Z" id="Shape" fill="#B8BFC4"></path>
                    <path d="M60.5,18.625 L57.875,16 L57,16.875 L60.5,20.375 L68,12.875 L67.125,12 L60.5,18.625 Z" id="Shape" fill="#76B072"></path>
                    <path d="M60.5,29.625 L57.875,27 L57,27.875 L60.5,31.375 L68,23.875 L67.125,23 L60.5,29.625 Z" id="Shape" fill="#B8BFC4"></path>
                    <g id="Group-2" transform="translate(77.000000, 1.000000)" stroke="#76B072" stroke-linecap="square">
                        <path d="M0.4375,6.5625 L6.5625,0.4375" id="Line"></path>
                        <path d="M0.4375,6.5625 L6.5625,0.4375" id="Line" transform="translate(3.500000, 3.500000) scale(-1, 1) translate(-3.500000, -3.500000) "></path>
                    </g>
                    <g id="Group-2" transform="translate(77.000000, 13.000000)" stroke="#B8BFC4" stroke-linecap="square">
                        <path d="M0.4375,6.5625 L6.5625,0.4375" id="Line"></path>
                        <path d="M0.4375,6.5625 L6.5625,0.4375" id="Line" transform="translate(3.500000, 3.500000) scale(-1, 1) translate(-3.500000, -3.500000) "></path>
                    </g>
                    <g id="Group-2" transform="translate(77.000000, 24.000000)" stroke="#76B072" stroke-linecap="square">
                        <path d="M0.4375,6.5625 L6.5625,0.4375" id="Line"></path>
                        <path d="M0.4375,6.5625 L6.5625,0.4375" id="Line" transform="translate(3.500000, 3.500000) scale(-1, 1) translate(-3.500000, -3.500000) "></path>
                    </g>
                </g>
            </g>
        </g>
    </g>
</svg>
