<?xml version="1.0" encoding="UTF-8" standalone="no"?>
<svg width="20px" height="15px" viewBox="0 0 20 15" version="1.1" xmlns="http://www.w3.org/2000/svg" xmlns:xlink="http://www.w3.org/1999/xlink">
    <!-- Generator: Sketch 3.6.1 (26313) - http://www.bohemiancoding.com/sketch -->
    <title>Course_Light</title>
    <desc>Created with Sketch.</desc>
    <defs></defs>
    <g id="StyleGuide" stroke="none" stroke-width="1" fill="none" fill-rule="evenodd">
        <g id="Style-Guide" transform="translate(-4131.000000, -466.000000)" fill="#E3E6EB">
            <g id="Course_Light" transform="translate(4131.000000, 466.000000)">
                <path d="M17.5,12.8203125 L17.5,2 L10,2 L10,12.8203125 L17.5,12.8203125 Z M17.5,0.3203125 C17.9427105,0.3203125 18.3333316,0.489581641 18.671875,0.828125 C19.0104184,1.16666836 19.1796875,1.55728945 19.1796875,2 L19.1796875,12.8203125 C19.1796875,13.263023 19.0104184,13.6536441 18.671875,13.9921875 C18.3333316,14.3307309 17.9427105,14.5 17.5,14.5 L2.5,14.5 C2.05728945,14.5 1.66666836,14.3307309 1.328125,13.9921875 C0.989581641,13.6536441 0.8203125,13.263023 0.8203125,12.8203125 L0.8203125,2 C0.8203125,1.55728945 0.989581641,1.16666836 1.328125,0.828125 C1.66666836,0.489581641 2.05728945,0.3203125 2.5,0.3203125 L17.5,0.3203125 Z M10.8203125,9.0703125 L16.6796875,9.0703125 L16.6796875,10.3203125 L10.8203125,10.3203125 L10.8203125,9.0703125 Z M10.8203125,4.9296875 L16.6796875,4.9296875 L16.6796875,6.1796875 L10.8203125,6.1796875 L10.8203125,4.9296875 Z M10.8203125,7 L16.6796875,7 L16.6796875,8.25 L10.8203125,8.25 L10.8203125,7 Z" id="chrome_reader_mode-copy-2"></path>
            </g>
        </g>
    </g>
</svg>