<?xml version="1.0" encoding="UTF-8" standalone="no"?>
<svg width="47px" height="26px" viewBox="0 0 47 26" version="1.1" xmlns="http://www.w3.org/2000/svg" xmlns:xlink="http://www.w3.org/1999/xlink">
    <!-- Generator: Sketch 3.6.1 (26313) - http://www.bohemiancoding.com/sketch -->
    <title>TrueFalse</title>
    <desc>Created with Sketch.</desc>
    <defs></defs>
    <g id="StyleGuide" stroke="none" stroke-width="1" fill="none" fill-rule="evenodd">
        <g id="Style-Guide" transform="translate(-3513.000000, -909.000000)">
            <g id="TrueFalse" transform="translate(3513.000000, 909.000000)">
                <path d="M21.5669733,23.808 C21.4496393,24.0960014 21.2976409,24.3519989 21.1109733,24.576 C20.9243057,24.8000011 20.7163077,24.9866659 20.4869733,25.136 C20.2576388,25.2853341 20.0123079,25.397333 19.7509733,25.472 C19.4896386,25.546667 19.2309745,25.584 18.9749733,25.584 L16.8629733,25.584 L25.9509733,1.728 C26.1643077,1.18399728 26.4896377,0.76800144 26.9269733,0.48 C27.3643088,0.19199856 27.8709704,0.048 28.4469733,0.048 L30.5589733,0.048 L21.5669733,23.808 Z M46.9749733,0.688 L46.9749733,4.848 L37.4069733,4.848 L37.4069733,10.752 L45.3749733,10.752 L45.3749733,14.928 L37.4069733,14.928 L37.4069733,24 L31.9669733,24 L31.9669733,0.688 L46.9749733,0.688 Z" id="T/F" fill="#FFFFFF"></path>
                <path d="M19.4869733,0.688 L19.4869733,4.976 L12.9269733,4.976 L12.9269733,24 L7.51897327,24 L7.51897327,4.976 L0.958973266,4.976 L0.958973266,0.688 L19.4869733,0.688 Z" id="Path" fill="#76B072"></path>
            </g>
        </g>
    </g>
</svg>
