<svg xmlns="http://www.w3.org/2000/svg" style="display: none"><symbol viewBox="0 0 16 16" id="0-59"><title>0-59</title> <path fill="#F46360" fill-rule="evenodd" d="M13.537 0H1.692C.762 0 0 .79 0 1.756v12.29c0 .966.761 1.756 1.692 1.756h11.845c.93 0 1.692-.79 1.692-1.755V1.756C15.229.79 14.467 0 13.537 0zm-8.46 12.29H3.383V6.146h1.692v6.146zm3.383 0H6.768V3.513H8.46v8.779zm3.385 0h-1.692V8.78h1.692v3.51z"/> </symbol><symbol viewBox="0 0 16 16" id="60-69"><title>60-69</title> <path fill="#ED8E36" fill-rule="evenodd" d="M13.537 0H1.692C.762 0 0 .79 0 1.756v12.29c0 .966.761 1.756 1.692 1.756h11.845c.93 0 1.692-.79 1.692-1.755V1.756C15.229.79 14.467 0 13.537 0zm-8.46 12.29H3.383V6.146h1.692v6.146zm3.383 0H6.768V3.513H8.46v8.779zm3.385 0h-1.692V8.78h1.692v3.51z"/> </symbol><symbol viewBox="0 0 16 16" id="70-79"><title>70-79</title> <path fill="#FABA36" fill-rule="evenodd" d="M13.537 0H1.692C.762 0 0 .79 0 1.756v12.29c0 .966.761 1.756 1.692 1.756h11.845c.93 0 1.692-.79 1.692-1.755V1.756C15.229.79 14.467 0 13.537 0zm-8.46 12.29H3.383V6.146h1.692v6.146zm3.383 0H6.768V3.513H8.46v8.779zm3.385 0h-1.692V8.78h1.692v3.51z"/> </symbol><symbol viewBox="0 0 16 16" id="80-89"><title>80-89</title> <path fill="#A8C99C" fill-rule="evenodd" d="M13.537 0H1.692C.762 0 0 .79 0 1.756v12.29c0 .966.761 1.756 1.692 1.756h11.845c.93 0 1.692-.79 1.692-1.755V1.756C15.229.79 14.467 0 13.537 0zm-8.46 12.29H3.383V6.146h1.692v6.146zm3.383 0H6.768V3.513H8.46v8.779zm3.385 0h-1.692V8.78h1.692v3.51z"/> </symbol><symbol viewBox="0 0 16 16" id="90-100"><title>90-100</title> <path fill="#4B9740" fill-rule="evenodd" d="M13.537 0H1.692C.762 0 0 .79 0 1.756v12.29c0 .966.761 1.756 1.692 1.756h11.845c.93 0 1.692-.79 1.692-1.755V1.756C15.229.79 14.467 0 13.537 0zm-8.46 12.29H3.383V6.146h1.692v6.146zm3.383 0H6.768V3.513H8.46v8.779zm3.385 0h-1.692V8.78h1.692v3.51z"/> </symbol><symbol viewBox="0 0 16 16" id="not-started"><title>not-started</title> <path fill="#e3e5ea" fill-rule="evenodd" d="M13.537 0H1.692C.762 0 0 .79 0 1.756v12.29c0 .966.761 1.756 1.692 1.756h11.845c.93 0 1.692-.79 1.692-1.755V1.756C15.229.79 14.467 0 13.537 0zm-8.46 12.29H3.383V6.146h1.692v6.146zm3.383 0H6.768V3.513H8.46v8.779zm3.385 0h-1.692V8.78h1.692v3.51z"/> </symbol></svg>